<svg width="57" height="57" viewBox="0 0 57 57" fill="none" xmlns="http://www.w3.org/2000/svg">
<path d="M39.3387 27.0048H35.8367C35.5407 25.5662 34.8294 24.2461 33.7907 23.2077C32.7521 22.1693 31.4317 21.4583 29.9931 21.1627V17.6615C29.9931 17.2651 29.8356 16.885 29.5553 16.6047C29.2751 16.3244 28.8949 16.167 28.4986 16.167C28.1022 16.167 27.7221 16.3244 27.4418 16.6047C27.1615 16.885 27.0041 17.2651 27.0041 17.6615V21.1627C25.5656 21.4584 24.2455 22.1694 23.2071 23.2078C22.1687 24.2462 21.4577 25.5664 21.162 27.0048H17.6607C17.2644 27.0048 16.8843 27.1623 16.604 27.4425C16.3237 27.7228 16.1663 28.1029 16.1663 28.4993C16.1663 28.8957 16.3237 29.2758 16.604 29.5561C16.8843 29.8363 17.2644 29.9938 17.6607 29.9938H21.162C21.4576 31.4324 22.1686 32.7528 23.207 33.7914C24.2453 34.8301 25.5655 35.5415 27.0041 35.8375V39.3371C27.0041 39.7335 27.1615 40.1136 27.4418 40.3939C27.7221 40.6741 28.1022 40.8316 28.4986 40.8316C28.8949 40.8316 29.2751 40.6741 29.5553 40.3939C29.8356 40.1136 29.9931 39.7335 29.9931 39.3371V35.8375C31.4318 35.5414 32.7521 34.8301 33.7908 33.7915C34.8294 32.7529 35.5407 31.4325 35.8367 29.9938H39.3387C39.7351 29.9938 40.1152 29.8363 40.3955 29.5561C40.6757 29.2758 40.8332 28.8957 40.8332 28.4993C40.8332 28.1029 40.6757 27.7228 40.3955 27.4425C40.1152 27.1623 39.7351 27.0048 39.3387 27.0048ZM28.4993 32.9999C26.0187 32.9999 24.001 30.98 24.001 28.4993C24.001 26.0186 26.0187 24.001 28.4993 24.001C30.98 24.001 33 26.0186 33 28.4993C33 30.98 30.98 32.9999 28.4993 32.9999Z" fill="#F7931D"/>
<path d="M28.4992 0C12.7852 0 0 12.7852 0 28.4992C0 44.2148 12.7852 57 28.4992 57C44.2148 57 57 44.2148 57 28.4992C57 12.7852 44.2148 0 28.4992 0ZM28.4992 53.1552C14.9043 53.1552 3.84477 42.0941 3.84477 28.4992C3.84477 14.9043 14.9043 3.84477 28.4992 3.84477C42.0941 3.84477 53.1552 14.9043 53.1552 28.4992C53.1552 42.0941 42.0941 53.1552 28.4992 53.1552Z" fill="#F7931D"/>
</svg>
