<svg width="63" height="69" viewBox="0 0 63 69" fill="none" xmlns="http://www.w3.org/2000/svg">
<g clip-path="url(#clip0)">
<path d="M44.526 27.3172H41.9207V25.5606C41.9207 22.3569 35.16 20.1082 31.5003 20.1082C27.8402 20.1082 21.0799 22.3569 21.0799 25.5606V27.3172H18.4746V25.5606C18.4746 19.6295 27.6669 17.2336 31.5003 17.2336C35.3341 17.2336 44.526 19.6295 44.526 25.5606V27.3172Z" fill="#F7931D"/>
<path d="M28.6517 69.0001H22.8784C22.6014 68.9994 22.3319 68.9021 22.1088 68.7223C21.8857 68.5425 21.7207 68.2895 21.6377 68.0001L17.7645 54.627H10.3904C6.22981 54.627 2.84399 50.8914 2.84399 46.3001V29.0362C2.84399 25.7107 5.29574 23.0054 8.30924 23.0054H8.50568C11.3866 23.0054 14.1647 24.3389 16.1282 26.6638L20.3234 31.6294H27.5925C27.9574 31.6294 28.3056 31.7986 28.5524 32.0956C28.7991 32.3918 28.9221 32.79 28.8901 33.1905C28.6994 35.6338 27.0929 40.2539 22.3823 40.2539H15.5941C15.4204 40.2538 15.2486 40.2155 15.0886 40.1413C14.9287 40.0672 14.784 39.9587 14.6631 39.8222L14.5668 39.7134V43.1285H19.7569C22.5144 43.1285 24.9824 45.0667 25.8967 47.9513C25.9125 48.0011 25.9261 48.0524 25.937 48.1036L29.9209 67.2411C29.965 67.4516 29.9653 67.6704 29.922 67.8811C29.8786 68.0918 29.7925 68.2892 29.6702 68.4586C29.5488 68.6273 29.3941 68.7637 29.2177 68.8575C29.0413 68.9513 28.8478 69 28.6517 69.0001ZM23.83 66.1256H27.0159L23.4152 48.8305C22.8487 47.1362 21.387 46.003 19.7569 46.003H13.2644C12.5451 46.003 11.9619 45.3595 11.9619 44.5655V36.7766L8.29481 32.6428L10.1572 30.6313L16.1422 37.3785H22.3827C24.5471 37.3785 25.5222 35.79 25.9571 34.5039H19.7569C19.5778 34.5038 19.4007 34.4631 19.2367 34.3843C19.0727 34.3056 18.9254 34.1905 18.804 34.0463L14.2229 28.6236C13.4932 27.7607 12.6089 27.0717 11.6252 26.5997C10.6415 26.1278 9.57961 25.8829 8.50568 25.8804H8.30924C6.73206 25.8804 5.44931 27.2958 5.44931 29.0366V46.3001C5.44931 49.3068 7.66568 51.7525 10.3904 51.7525H18.7161C18.993 51.7532 19.2626 51.8505 19.4857 52.0303C19.7088 52.2101 19.8738 52.4631 19.9568 52.7525L23.83 66.1256Z" fill="#F7931D"/>
<path d="M11.9618 21.5678C8.43122 21.5678 5.44922 18.2768 5.44922 14.3812V12.9437C5.44922 9.04378 8.43165 5.74951 11.9618 5.74951C15.492 5.74951 18.4745 9.04378 18.4745 12.9437V14.3812C18.4745 18.3434 15.5528 21.5678 11.9618 21.5678ZM11.9618 8.62403C9.8439 8.62403 8.05409 10.6025 8.05409 12.9437V14.3812C8.05409 16.7181 9.8439 18.6932 11.9618 18.6932C14.0798 18.6932 15.8696 16.7181 15.8696 14.3812V12.9437C15.8696 10.6025 14.0798 8.62403 11.9618 8.62403Z" fill="#F7931D"/>
<path d="M39.8779 68.9999H34.1056C33.9094 68.9998 33.7157 68.9509 33.5393 68.8571C33.3628 68.7632 33.208 68.6267 33.0866 68.4579C32.9646 68.2883 32.8787 68.0909 32.8354 67.8802C32.792 67.6696 32.7922 67.4509 32.8359 67.2404L36.8198 48.1029C36.8299 48.0516 36.8439 48.0004 36.8592 47.9505C37.7749 45.066 40.2428 43.1277 43.0004 43.1277H48.4333V39.4453L48.0846 39.8306C47.964 39.9644 47.8205 40.0706 47.6621 40.1432C47.5038 40.2157 47.3339 40.2531 47.1623 40.2532H40.6178C35.9076 40.2532 34.3007 35.6331 34.1099 33.1898C34.094 32.9917 34.1157 32.7922 34.1737 32.6037C34.2317 32.4153 34.3247 32.242 34.4468 32.0949C34.5684 31.9482 34.7166 31.831 34.882 31.7507C35.0474 31.6704 35.2262 31.6288 35.4071 31.6287H42.4338L46.6277 26.6631C48.5916 24.3382 51.3698 23.0046 54.2498 23.0046H54.4471C57.542 23.0046 60.1561 25.7666 60.1561 29.0354V46.2988C60.1561 50.8121 56.5891 54.6258 52.3664 54.6258H44.9928L41.1183 67.9998C41.0353 68.2892 40.8704 68.5422 40.6474 68.722C40.4244 68.9018 40.1549 68.9991 39.8779 68.9999ZM35.7414 66.1253H38.9264L42.8009 52.7513C42.8839 52.462 43.0489 52.2093 43.2719 52.0296C43.4949 51.8498 43.7643 51.7526 44.0412 51.7518H52.3668C55.1769 51.7518 57.5516 49.2548 57.5516 46.2993V29.0359C57.5516 27.3545 56.1013 25.8796 54.448 25.8796H54.2507C53.1768 25.8822 52.115 26.1272 51.1314 26.5994C50.1479 27.0715 49.2638 27.7607 48.5343 28.6238L43.9537 34.0461C43.8323 34.1902 43.6849 34.3052 43.5209 34.384C43.357 34.4627 43.1799 34.5035 43.0008 34.5037H37.0438C37.4774 35.7888 38.4534 37.3782 40.6182 37.3782H46.622L52.7304 30.6219L54.5749 32.6517L51.0386 36.5636V44.5652C51.0386 45.3592 50.4558 46.0027 49.7361 46.0027H43.0008C41.3703 46.0027 39.9086 47.136 39.3411 48.8303L35.7414 66.1253Z" fill="#F7931D"/>
<path d="M51.0385 21.5678C47.5088 21.5678 44.5259 18.2768 44.5259 14.3812V12.9437C44.5259 9.04378 47.5088 5.74951 51.0385 5.74951C54.5683 5.74951 57.5511 9.04378 57.5511 12.9437V14.3812C57.5511 18.2768 54.5683 21.5678 51.0385 21.5678ZM51.0385 8.62403C48.9206 8.62403 47.1308 10.6025 47.1308 12.9437V14.3812C47.1308 16.7181 48.9206 18.6932 51.0385 18.6932C53.1564 18.6932 54.9463 16.7181 54.9463 14.3812V12.9437C54.9463 10.6025 53.1564 8.62403 51.0385 8.62403Z" fill="#F7931D"/>
<path d="M49.7362 37.3784V40.2529H13.2644V37.3784H49.7362Z" fill="#F7931D"/>
<path d="M31.5002 15.8182C27.9696 15.8182 24.9875 12.5273 24.9875 8.63171V7.19421C24.9875 3.29427 27.9696 0 31.5002 0C35.0299 0 38.0128 3.29427 38.0128 7.19421V8.63171C38.0128 12.5278 35.0299 15.8182 31.5002 15.8182ZM31.5002 2.87452C29.3822 2.87452 27.5924 4.853 27.5924 7.19421V8.63171C27.5924 10.9686 29.3822 12.9437 31.5002 12.9437C33.6181 12.9437 35.4079 10.9686 35.4079 8.63171V7.19421C35.4079 4.853 33.6181 2.87452 31.5002 2.87452Z" fill="#F7931D"/>
</g>
<defs>
<clipPath id="clip0">
<rect width="63" height="69" fill="white"/>
</clipPath>
</defs>
</svg>
