<svg width="85" height="57" viewBox="0 0 85 57" fill="none" xmlns="http://www.w3.org/2000/svg">
<path d="M42.5008 9.58398C35.8828 9.58398 30.6993 11.8852 30.6993 14.8245C30.6993 14.8436 30.7053 14.8623 30.7053 14.882C30.6459 14.9874 30.6038 15.0989 30.6038 15.2179V42.5673C30.6038 42.7746 30.7234 42.9562 30.8911 43.1131C31.8622 45.5883 36.6072 47.4158 42.5008 47.4158C48.3943 47.4158 53.1393 45.5883 54.1104 43.1131C54.2781 42.9562 54.3978 42.7746 54.3978 42.5673V14.5561C54.3978 14.3755 54.303 14.2161 54.1728 14.0719C53.3717 11.5033 48.5403 9.58398 42.5008 9.58398ZM51.4295 26.4923C51.4295 28.2931 47.3397 29.816 42.5 29.816C37.6595 29.816 33.5705 28.2931 33.5705 26.4923C33.5705 26.3808 33.5276 26.2769 33.475 26.177V26.0106C35.6233 27.1375 38.8397 27.8437 42.4993 27.8437C46.1595 27.8437 49.3752 27.1375 51.5235 26.0106V26.177C51.4662 26.2779 51.4344 26.3844 51.4295 26.4923ZM51.5251 29.9007V30.0662C51.4724 30.166 51.4295 30.2694 51.4295 30.3814C51.4295 32.1822 47.3397 33.7051 42.5 33.7051C37.6595 33.7051 33.5705 32.1822 33.5705 30.3814C33.5705 30.2699 33.5276 30.166 33.475 30.0662V29.9007C35.6233 31.0271 38.8397 31.7333 42.4993 31.7333C46.1603 31.7328 49.3767 31.0271 51.5251 29.9007ZM33.4757 33.7893C35.624 34.9157 38.8405 35.6219 42.5 35.6219C46.1603 35.6219 49.376 34.9157 51.5243 33.7893V33.9548C51.4716 34.0546 51.4288 34.158 51.4288 34.27C51.4288 36.0708 47.339 37.5937 42.4993 37.5937C37.6588 37.5937 33.5697 36.0708 33.5697 34.27C33.5697 34.1586 33.5269 34.0546 33.4742 33.9548V33.7893H33.4757ZM51.5251 22.2874C51.4724 22.3873 51.4295 22.4907 51.4295 22.6027C51.4295 24.405 47.3397 25.9273 42.5 25.9273C37.6595 25.9273 33.5705 24.4045 33.5705 22.6027C33.5705 22.4912 33.5276 22.3873 33.475 22.2874V22.1225C35.6233 23.2494 38.8397 23.9555 42.4993 23.9555C46.1595 23.9555 49.3752 23.2494 51.5235 22.1225V22.2874H51.5251ZM33.4757 37.6784C35.624 38.8048 38.8405 39.511 42.5 39.511C46.1603 39.511 49.376 38.8048 51.5243 37.6784V37.97C51.4716 38.0699 51.4288 38.1733 51.4288 38.2852C51.4288 40.086 47.339 41.6089 42.4993 41.6089C37.6588 41.6089 33.5697 40.086 33.5697 38.2852C33.5697 38.1738 33.5269 38.0699 33.4742 37.97V37.6784H33.4757ZM42.5008 11.5008C47.3405 11.5008 51.4303 13.0237 51.4303 14.8245C51.4303 14.9359 51.4731 15.0398 51.5258 15.1397V18.3983C51.4731 18.4982 51.4303 18.6016 51.4303 18.7136C51.4303 20.5159 47.3405 22.0382 42.5008 22.0382C37.6603 22.0382 33.5712 20.5154 33.5712 18.7136C33.5712 18.6021 33.5284 18.4982 33.4757 18.3983V18.2329C35.624 19.3592 38.8405 20.0654 42.5 20.0654C44.9011 20.0654 47.2028 19.7557 49.1593 19.1706C49.883 18.9532 50.2064 18.3867 49.883 17.904C49.726 17.6716 49.4383 17.4904 49.0827 17.3999C48.7271 17.3093 48.3325 17.3168 47.9851 17.4207C46.3957 17.8964 44.4994 18.1481 42.5008 18.1481C37.6603 18.1481 33.5712 16.6252 33.5712 14.8245C33.5712 13.0237 37.6603 11.5008 42.5008 11.5008ZM42.5008 45.499C37.6603 45.499 33.5712 43.9762 33.5712 42.1744C33.5712 42.0629 33.5284 41.959 33.4757 41.8591V41.6936C35.624 42.82 38.8405 43.5262 42.5 43.5262C46.1603 43.5262 49.376 42.82 51.5243 41.6936V41.8591C51.4716 41.959 51.4288 42.0624 51.4288 42.1744C51.4295 43.9762 47.3397 45.499 42.5008 45.499Z" fill="#F7931D"/>
<path d="M11.897 17.4243C5.27978 17.4243 0.0962819 19.727 0.0962819 22.6663C0.0962819 22.685 0.10155 22.7026 0.102302 22.7213C0.0421251 22.8272 0 22.9397 0 23.0598V34.7276C0 34.9359 0.120353 35.118 0.2896 35.2754C1.26372 37.7491 6.00717 39.5751 11.897 39.5751C17.7883 39.5751 22.5333 37.7486 23.5059 35.2739C23.6744 35.117 23.794 34.9349 23.794 34.7276V22.3974C23.794 22.2169 23.6992 22.0575 23.5691 21.9132C22.7687 19.3442 17.9365 17.4243 11.897 17.4243ZM2.8727 29.9623C5.02102 31.0892 8.23748 31.7954 11.897 31.7954C15.5565 31.7954 18.773 31.0892 20.9213 29.9628V30.1283C20.8686 30.2281 20.8257 30.3315 20.8257 30.4435C20.8257 32.2458 16.7367 33.7682 11.8962 33.7682C7.0565 33.7682 2.96823 32.2453 2.96823 30.4435C2.96823 30.3305 2.92535 30.2261 2.87195 30.1252V29.9623H2.8727ZM11.897 19.3411C16.7375 19.3411 20.8265 20.864 20.8265 22.6658C20.8265 22.7773 20.8694 22.8812 20.922 22.9811V26.2396C20.8694 26.3395 20.8265 26.4429 20.8265 26.5549C20.8265 28.3557 16.7375 29.8786 11.897 29.8786C7.05726 29.8786 2.96898 28.3557 2.96898 26.5549C2.96898 26.4419 2.92611 26.3375 2.8727 26.2366V26.0737C5.02102 27.2006 8.23748 27.9068 11.897 27.9068C14.295 27.9068 16.5983 27.5971 18.5571 27.0119C18.7288 26.9608 18.8839 26.8874 19.0132 26.7961C19.1426 26.7047 19.2438 26.597 19.3111 26.4794C19.3783 26.3617 19.4102 26.2363 19.405 26.1103C19.3998 25.9843 19.3576 25.8603 19.2807 25.7453C19.1245 25.5125 18.8368 25.3309 18.481 25.2402C18.1251 25.1496 17.7301 25.1575 17.3829 25.2621C15.7912 25.7377 13.8941 25.9895 11.897 25.9895C7.05726 25.9895 2.96898 24.4666 2.96898 22.6658C2.96898 20.864 7.05726 19.3411 11.897 19.3411ZM11.897 37.6573C7.05726 37.6573 2.96898 36.1344 2.96898 34.3326C2.96898 34.2197 2.92611 34.1152 2.8727 34.0143V33.8519C5.02102 34.9793 8.23748 35.6855 11.897 35.6855C15.5565 35.6855 18.773 34.9793 20.9213 33.8524V34.0174C20.8686 34.1173 20.8257 34.2207 20.8257 34.3326C20.8265 36.135 16.7375 37.6573 11.897 37.6573Z" fill="#F7931D"/>
<path d="M85 22.3972C85 22.2166 84.9053 22.0572 84.7751 21.913C83.9748 19.3439 79.1433 17.4236 73.1031 17.4236C66.4851 17.4236 61.3016 19.7263 61.3016 22.6656C61.3016 22.6847 61.3076 22.7034 61.3076 22.7231C61.2482 22.8285 61.2061 22.94 61.2061 23.059V34.7269C61.2061 34.9342 61.3257 35.1163 61.4942 35.2732C62.4668 37.7474 67.211 39.5744 73.1031 39.5744C78.9951 39.5744 83.7393 37.7479 84.712 35.2732C84.8797 35.1163 85 34.9342 85 34.7269V22.3972ZM64.0788 29.9626C66.2271 31.089 69.4435 31.7951 73.1031 31.7951C76.7626 31.7951 79.979 31.089 82.1273 29.9626V30.128C82.0747 30.2279 82.0318 30.3313 82.0318 30.4433C82.0318 32.2456 77.942 33.768 73.1023 33.768C68.2626 33.768 64.1728 32.2451 64.1728 30.4433C64.1728 30.3318 64.1299 30.2279 64.0773 30.128V29.9626H64.0788ZM73.1031 19.3409C77.9428 19.3409 82.0326 20.8638 82.0326 22.6656C82.0326 22.777 82.0754 22.881 82.1281 22.9808V26.2394C82.0754 26.3393 82.0326 26.4427 82.0326 26.5547C82.0326 28.3555 77.9428 29.8783 73.1031 29.8783C68.2633 29.8783 64.1735 28.3555 64.1735 26.5547C64.1735 26.4432 64.1307 26.3393 64.078 26.2394V26.074C66.2263 27.2003 69.4428 27.9065 73.1023 27.9065C75.5034 27.9065 77.8051 27.5968 79.7616 27.0117C80.4853 26.7943 80.8087 26.2278 80.4853 25.7451C80.3284 25.5127 80.0407 25.3313 79.6851 25.2408C79.3294 25.1502 78.9348 25.1578 78.5874 25.2618C76.998 25.7375 75.1017 25.9892 73.1031 25.9892C68.2633 25.9892 64.1735 24.4664 64.1735 22.6656C64.1735 20.8638 68.2633 19.3409 73.1031 19.3409ZM73.1031 37.6571C68.2633 37.6571 64.1735 36.1342 64.1735 34.3324C64.1735 34.2209 64.1307 34.117 64.078 34.0171V33.8522C66.2263 34.9791 69.4428 35.6853 73.1023 35.6853C76.7618 35.6853 79.9783 34.9791 82.1266 33.8522V34.0171C82.0739 34.117 82.0311 34.2204 82.0311 34.3324C82.0326 36.1347 77.9428 37.6571 73.1031 37.6571Z" fill="#F7931D"/>
</svg>
