<svg width="68" height="47" viewBox="0 0 68 47" fill="none" xmlns="http://www.w3.org/2000/svg">
<g clip-path="url(#clip0)">
<path d="M60.5207 26.4449H40.979V24.4815H60.5207C62.8516 24.4815 64.7082 23.0718 64.7082 22.518C64.7082 21.3284 58.8263 19.5731 53.5415 19.5731H14.4577C14.1307 19.5732 13.8141 19.4925 13.5634 19.3452L5.78704 14.7876L3.95376 15.217C5.32629 16.8832 8.08252 20.1537 9.98813 21.9261C10.3071 22.2234 10.36 22.6223 10.1246 22.9554C10.0093 23.1189 9.83109 23.2565 9.61018 23.3527C9.38927 23.4489 9.13441 23.4999 8.87438 23.4999C8.11796 23.4999 7.84947 23.7802 7.84947 24.0203C7.84947 24.3132 8.22283 24.4815 8.87438 24.4815H28.416V26.4449H8.87438C7.45524 26.4449 6.57502 26.0522 6.08563 25.7236C5.75822 25.5037 5.4982 25.2393 5.32148 24.9465C5.14475 24.6537 5.05503 24.3386 5.05781 24.0207C5.06073 23.6177 5.20457 23.2215 5.47672 22.8666C5.74887 22.5117 6.141 22.2091 6.61871 21.9854C4.00037 19.2863 0.832437 15.3379 0.679502 15.1469C0.578541 15.0207 0.518495 14.8804 0.503642 14.7361C0.488788 14.5917 0.519492 14.4469 0.593568 14.3118C0.667247 14.1769 0.782604 14.0551 0.931353 13.9551C1.0801 13.8552 1.25855 13.7796 1.45389 13.7338L5.64139 12.7523C5.86723 12.7001 6.10824 12.6891 6.34184 12.7201C6.57544 12.7511 6.79399 12.8232 6.97702 12.9297L14.9636 17.6103H53.5415C58.551 17.6103 67.4999 19.2505 67.4999 22.5187C67.4999 24.2492 64.2135 26.4449 60.5207 26.4449Z" fill="#F7931D"/>
<path d="M21.437 40.1883C21.2243 40.1883 21.0102 40.1543 20.8126 40.0848L18.021 39.1032C17.8468 39.042 17.6928 38.9558 17.5688 38.8504C17.4448 38.7449 17.3536 38.6225 17.301 38.4908C17.2484 38.3592 17.2355 38.2214 17.2633 38.0861C17.291 37.9508 17.3588 37.821 17.4621 37.7052L24.384 29.9154L28.5293 23.1134L31.0947 23.8872L26.9072 30.7587C26.8795 30.805 26.8462 30.8495 26.8077 30.8919L20.6422 37.8298L21.2107 38.0297L34.3947 29.6852L42.7109 22.8613L44.8292 24.1392L36.4542 31.0107C36.4155 31.0429 36.3736 31.0732 36.3289 31.1013L22.3706 39.9363C22.1148 40.0987 21.782 40.1885 21.437 40.1883Z" fill="#F7931D"/>
<path d="M34.4613 17.3579L21.2104 8.97046L20.6419 9.17038L26.8073 16.1083L24.441 17.1485L17.4618 9.29504C17.3587 9.17911 17.2912 9.04938 17.2636 8.91413C17.2361 8.77888 17.249 8.64108 17.3015 8.50952C17.3541 8.37797 17.4452 8.25555 17.569 8.15007C17.6928 8.0446 17.8466 7.9584 18.0206 7.89696L20.8123 6.91541C21.0631 6.82736 21.346 6.79443 21.624 6.82092C21.9019 6.84741 22.162 6.93209 22.3703 7.0639L36.3286 15.8989L34.4613 17.3579Z" fill="#F7931D"/>
</g>
<defs>
<clipPath id="clip0">
<rect width="67" height="47" fill="white" transform="translate(0.5)"/>
</clipPath>
</defs>
</svg>
