<svg width="63" height="69" fill="none" xmlns="http://www.w3.org/2000/svg"><g clip-path="url(#clip0)" fill="#F7931D"><path d="M44.526 27.317h-2.605v-1.756c0-3.204-6.761-5.453-10.42-5.453-3.66 0-10.421 2.249-10.421 5.453v1.756h-2.605v-1.756c0-5.931 9.192-8.327 13.025-8.327 3.834 0 13.026 2.395 13.026 8.327v1.756z"/><path d="M28.652 69h-5.774a1.23 1.23 0 01-.77-.278 1.431 1.431 0 01-.47-.722l-3.873-13.373H10.39c-4.16 0-7.546-3.736-7.546-8.327V29.036c0-3.325 2.452-6.03 5.465-6.03h.197c2.88 0 5.659 1.333 7.622 3.658l4.195 4.965h7.27c.364 0 .713.17.96.467.246.296.37.694.337 1.095-.19 2.443-1.797 7.063-6.508 7.063h-6.788c-.174 0-.345-.038-.505-.113a1.3 1.3 0 01-.426-.319l-.096-.109v3.416h5.19c2.757 0 5.225 1.938 6.14 4.822.016.05.03.101.04.153l3.984 19.137c.044.21.044.43.001.64-.043.21-.13.408-.252.578a1.328 1.328 0 01-.452.398c-.177.094-.37.143-.566.143zm-4.822-2.874h3.186l-3.6-17.296c-.567-1.694-2.029-2.827-3.66-2.827h-6.492c-.719 0-1.302-.644-1.302-1.438v-7.788l-3.667-4.134 1.862-2.012 5.985 6.748h6.24c2.165 0 3.14-1.589 3.575-2.875h-6.2a1.2 1.2 0 01-.52-.12 1.305 1.305 0 01-.433-.338l-4.581-5.422a7.869 7.869 0 00-2.598-2.024 7.241 7.241 0 00-3.12-.72H8.31c-1.577 0-2.86 1.416-2.86 3.157V46.3c0 3.007 2.217 5.453 4.941 5.453h8.326c.277 0 .547.097.77.277.223.18.388.433.47.722l3.874 13.374zM11.962 21.568c-3.53 0-6.513-3.291-6.513-7.187v-1.437c0-3.9 2.983-7.194 6.513-7.194s6.512 3.294 6.512 7.194v1.437c0 3.962-2.921 7.187-6.512 7.187zm0-12.944c-2.118 0-3.908 1.978-3.908 4.32v1.437c0 2.337 1.79 4.312 3.908 4.312s3.908-1.975 3.908-4.312v-1.437c0-2.342-1.79-4.32-3.908-4.32zM39.878 69h-5.772c-.197 0-.39-.05-.567-.143a1.328 1.328 0 01-.452-.4 1.51 1.51 0 01-.252-.577 1.583 1.583 0 010-.64l3.985-19.137c.01-.051.024-.103.04-.153.915-2.884 3.383-4.822 6.14-4.822h5.433v-3.683l-.348.386c-.121.133-.264.24-.423.312a1.2 1.2 0 01-.5.11h-6.544c-4.71 0-6.317-4.62-6.508-7.063a1.569 1.569 0 01.064-.586c.058-.189.15-.362.273-.51a1.31 1.31 0 01.435-.343c.165-.08.344-.122.525-.122h7.027l4.194-4.966c1.964-2.325 4.742-3.658 7.622-3.658h.197c3.095 0 5.71 2.762 5.71 6.03V46.3c0 4.513-3.568 8.327-7.79 8.327h-7.374L41.118 68c-.083.29-.248.542-.47.722a1.23 1.23 0 01-.77.278zm-4.137-2.875h3.185l3.875-13.374a1.43 1.43 0 01.47-.721 1.23 1.23 0 01.77-.278h8.326c2.81 0 5.185-2.497 5.185-5.453V29.036c0-1.681-1.45-3.156-3.104-3.156h-.197a7.238 7.238 0 00-3.12.72 7.867 7.867 0 00-2.597 2.024l-4.58 5.422c-.122.144-.27.26-.433.338-.164.079-.341.12-.52.12h-5.957c.433 1.285 1.41 2.874 3.574 2.874h6.004l6.108-6.756 1.845 2.03-3.536 3.912v8.001c0 .794-.583 1.438-1.303 1.438h-6.735c-1.63 0-3.092 1.133-3.66 2.827l-3.6 17.295zM51.038 21.568c-3.53 0-6.512-3.291-6.512-7.187v-1.437c0-3.9 2.983-7.194 6.512-7.194 3.53 0 6.513 3.294 6.513 7.194v1.437c0 3.896-2.983 7.187-6.513 7.187zm0-12.944c-2.117 0-3.907 1.978-3.907 4.32v1.437c0 2.337 1.79 4.312 3.907 4.312 2.118 0 3.908-1.975 3.908-4.312v-1.437c0-2.342-1.79-4.32-3.907-4.32z"/><path d="M49.736 37.378v2.875H13.264v-2.875h36.472zM31.5 15.818c-3.53 0-6.512-3.29-6.512-7.186V7.194C24.988 3.294 27.97 0 31.5 0c3.53 0 6.513 3.294 6.513 7.194v1.438c0 3.896-2.983 7.186-6.513 7.186zm0-12.943c-2.118 0-3.908 1.978-3.908 4.32v1.437c0 2.337 1.79 4.312 3.908 4.312s3.908-1.975 3.908-4.312V7.194c0-2.341-1.79-4.32-3.908-4.32z"/></g><defs><clipPath id="clip0"><path fill="#fff" d="M0 0h63v69H0z"/></clipPath></defs></svg>