<svg width="57" height="57" fill="none" xmlns="http://www.w3.org/2000/svg"><path d="M39.339 27.005h-3.502a7.509 7.509 0 00-5.844-5.842V17.66a1.495 1.495 0 00-2.989 0v3.502a7.507 7.507 0 00-5.842 5.842h-3.501a1.495 1.495 0 000 2.989h3.501a7.509 7.509 0 005.842 5.843v3.5a1.494 1.494 0 102.99 0v-3.5a7.513 7.513 0 005.843-5.843h3.502a1.495 1.495 0 000-2.99zM28.499 33a4.505 4.505 0 01-4.498-4.5A4.503 4.503 0 0128.499 24c2.481 0 4.501 2.018 4.501 4.498 0 2.481-2.02 4.5-4.5 4.5z" fill="#F7931D"/><path d="M28.5 0C12.784 0 0 12.785 0 28.5S12.785 57 28.5 57 57 44.215 57 28.5 44.215 0 28.5 0zm0 53.155c-13.596 0-24.655-11.06-24.655-24.656 0-13.595 11.06-24.654 24.654-24.654 13.595 0 24.656 11.06 24.656 24.654 0 13.595-11.06 24.656-24.656 24.656z" fill="#F7931D"/></svg>