<svg width="68" height="47" fill="none" xmlns="http://www.w3.org/2000/svg"><g clip-path="url(#clip0)" fill="#F7931D"><path d="M60.52 26.445H40.98v-1.963h19.542c2.33 0 4.187-1.41 4.187-1.964 0-1.19-5.882-2.945-11.166-2.945H14.457c-.327 0-.644-.08-.895-.228l-7.776-4.557-1.833.429c1.372 1.666 4.129 4.937 6.034 6.71.32.296.372.695.137 1.028a1.215 1.215 0 01-.515.398c-.22.096-.476.147-.736.147-.756 0-1.025.28-1.025.52 0 .293.374.462 1.025.462h19.542v1.963H8.874c-1.419 0-2.299-.393-2.788-.721a2.524 2.524 0 01-.765-.777 1.754 1.754 0 01-.263-.926c.003-.403.147-.8.419-1.154.272-.355.664-.658 1.142-.882C4 19.286.832 15.338.679 15.147a.787.787 0 01-.175-.41.722.722 0 01.09-.425c.073-.135.189-.257.337-.357.15-.1.328-.175.523-.221l4.187-.982a1.98 1.98 0 01.7-.032c.234.031.453.103.636.21l7.987 4.68h38.578c5.009 0 13.958 1.64 13.958 4.909 0 1.73-3.287 3.926-6.98 3.926z"/><path d="M21.437 40.188c-.213 0-.427-.034-.624-.103l-2.792-.982a1.429 1.429 0 01-.452-.253.932.932 0 01-.268-.36.7.7 0 01-.038-.404.823.823 0 01.2-.38l6.921-7.79 4.145-6.803 2.566.774-4.188 6.872a.84.84 0 01-.1.133l-6.165 6.938.569.2 13.184-8.345 8.316-6.824 2.118 1.278-8.375 6.872c-.038.032-.08.062-.125.09L22.37 39.936a1.761 1.761 0 01-.934.252zM34.461 17.358L21.211 8.97l-.57.2 6.166 6.938-2.366 1.04-6.98-7.853a.823.823 0 01-.197-.38.703.703 0 01.038-.405.933.933 0 01.267-.36 1.43 1.43 0 01.452-.253l2.791-.982c.251-.088.534-.12.812-.094.278.026.538.111.746.243l13.959 8.835-1.868 1.459z"/></g><defs><clipPath id="clip0"><path fill="#fff" transform="translate(.5)" d="M0 0h67v47H0z"/></clipPath></defs></svg>