<svg width="85" height="57" fill="none" xmlns="http://www.w3.org/2000/svg"><path d="M42.5 9.584c-6.617 0-11.8 2.301-11.8 5.24 0 .02.005.038.005.058a.686.686 0 00-.101.336v27.35c0 .207.12.388.287.545.971 2.475 5.716 4.303 11.61 4.303 5.893 0 10.638-1.828 11.61-4.303.167-.157.287-.338.287-.546v-28.01c0-.181-.095-.34-.225-.485-.801-2.569-5.633-4.488-11.672-4.488zm8.93 16.908c0 1.801-4.09 3.324-8.93 3.324s-8.93-1.523-8.93-3.324a.684.684 0 00-.095-.315v-.166c2.148 1.127 5.365 1.833 9.024 1.833 3.66 0 6.876-.707 9.024-1.833v.166a.7.7 0 00-.094.315zm.095 3.409v.165a.68.68 0 00-.096.315c0 1.801-4.09 3.324-8.929 3.324-4.84 0-8.93-1.523-8.93-3.324a.683.683 0 00-.095-.315v-.165c2.148 1.126 5.365 1.832 9.024 1.832 3.661 0 6.878-.706 9.026-1.832zm-18.05 3.888c2.149 1.127 5.365 1.833 9.025 1.833s6.876-.706 9.024-1.833v.166a.68.68 0 00-.095.315c0 1.8-4.09 3.324-8.93 3.324s-8.93-1.523-8.93-3.324a.682.682 0 00-.095-.315v-.166h.002zm18.05-11.502a.68.68 0 00-.096.316c0 1.802-4.09 3.324-8.929 3.324-4.84 0-8.93-1.523-8.93-3.324a.684.684 0 00-.095-.316v-.165c2.148 1.127 5.365 1.834 9.024 1.834 3.66 0 6.876-.707 9.024-1.834v.165h.002zm-18.05 15.391c2.149 1.127 5.365 1.833 9.025 1.833s6.876-.706 9.024-1.833v.292a.68.68 0 00-.095.315c0 1.801-4.09 3.324-8.93 3.324s-8.93-1.523-8.93-3.324a.682.682 0 00-.095-.315v-.292h.002zm9.026-26.177c4.84 0 8.93 1.523 8.93 3.324 0 .11.042.215.095.315v3.258a.68.68 0 00-.096.316c0 1.802-4.09 3.324-8.93 3.324s-8.929-1.523-8.929-3.324a.682.682 0 00-.095-.316v-.165c2.148 1.126 5.364 1.832 9.024 1.832 2.401 0 4.703-.31 6.66-.894.723-.218 1.046-.784.723-1.267-.157-.232-.445-.414-.8-.504a2.1 2.1 0 00-1.098.02c-1.59.476-3.486.728-5.484.728-4.84 0-8.93-1.523-8.93-3.323 0-1.801 4.09-3.324 8.93-3.324zm0 33.998c-4.84 0-8.93-1.523-8.93-3.325a.682.682 0 00-.095-.315v-.165c2.148 1.126 5.364 1.832 9.024 1.832 3.66 0 6.876-.706 9.024-1.832v.165a.68.68 0 00-.095.315c0 1.802-4.09 3.325-8.928 3.325zM11.897 17.424c-6.617 0-11.8 2.303-11.8 5.242 0 .019.005.037.005.055A.687.687 0 000 23.06v11.668c0 .208.12.39.29.547.974 2.474 5.717 4.3 11.607 4.3 5.891 0 10.636-1.826 11.609-4.301.168-.157.288-.34.288-.546v-12.33c0-.181-.095-.34-.225-.485-.8-2.569-5.633-4.489-11.672-4.489zM2.873 29.962c2.148 1.127 5.364 1.833 9.024 1.833 3.66 0 6.876-.706 9.024-1.832v.165a.68.68 0 00-.095.316c0 1.802-4.09 3.324-8.93 3.324s-8.928-1.523-8.928-3.325a.685.685 0 00-.096-.318v-.163zm9.024-10.62c4.84 0 8.93 1.522 8.93 3.324 0 .111.042.215.095.315v3.259a.682.682 0 00-.096.315c0 1.8-4.088 3.324-8.929 3.324-4.84 0-8.928-1.523-8.928-3.324a.685.685 0 00-.096-.318v-.163c2.148 1.127 5.364 1.833 9.024 1.833 2.398 0 4.701-.31 6.66-.895.172-.051.327-.125.456-.216.13-.091.23-.199.298-.317a.683.683 0 00.094-.369.707.707 0 00-.124-.365c-.156-.233-.444-.414-.8-.505a2.095 2.095 0 00-1.098.022c-1.592.476-3.489.727-5.486.727-4.84 0-8.928-1.522-8.928-3.323 0-1.802 4.088-3.325 8.928-3.325zm0 18.315c-4.84 0-8.928-1.523-8.928-3.324a.685.685 0 00-.096-.319v-.162c2.148 1.127 5.364 1.834 9.024 1.834 3.66 0 6.876-.707 9.024-1.834v.165a.68.68 0 00-.095.316c0 1.802-4.088 3.324-8.929 3.324zM85 22.397c0-.18-.095-.34-.225-.484-.8-2.57-5.632-4.49-11.672-4.49-6.618 0-11.801 2.303-11.801 5.243 0 .019.006.037.006.057a.686.686 0 00-.102.336v11.668c0 .207.12.39.288.546.973 2.474 5.717 4.301 11.61 4.301 5.891 0 10.635-1.826 11.608-4.3.168-.158.288-.34.288-.547v-12.33zm-20.921 7.566c2.148 1.126 5.365 1.832 9.024 1.832 3.66 0 6.876-.706 9.024-1.832v.165a.682.682 0 00-.095.315c0 1.803-4.09 3.325-8.93 3.325s-8.93-1.523-8.93-3.325a.684.684 0 00-.095-.315v-.165h.002zm9.024-10.622c4.84 0 8.93 1.523 8.93 3.325 0 .111.042.215.095.315v3.258a.68.68 0 00-.095.316c0 1.8-4.09 3.323-8.93 3.323s-8.93-1.523-8.93-3.323a.682.682 0 00-.095-.316v-.165c2.148 1.126 5.365 1.832 9.024 1.832 2.401 0 4.703-.31 6.66-.894.723-.218 1.047-.784.723-1.267-.157-.232-.444-.414-.8-.504a2.1 2.1 0 00-1.098.02c-1.589.477-3.485.728-5.484.728-4.84 0-8.93-1.523-8.93-3.323 0-1.802 4.09-3.325 8.93-3.325zm0 18.316c-4.84 0-8.93-1.523-8.93-3.325a.682.682 0 00-.095-.315v-.165c2.148 1.127 5.365 1.833 9.024 1.833 3.66 0 6.876-.706 9.025-1.833v.165a.68.68 0 00-.096.315c.002 1.803-4.088 3.325-8.928 3.325z" fill="#F7931D"/></svg>