<svg width="11" height="6" viewBox="0 0 11 6" fill="none" xmlns="http://www.w3.org/2000/svg">
<path d="M0.461259 6.19888e-06C0.560172 6.19888e-06 0.658933 0.0388427 0.734509 0.116357L5.53786 5.04224L10.3404 0.116357C10.3763 0.0794764 10.4188 0.0502129 10.4657 0.0302453C10.5126 0.0102777 10.5628 0 10.6136 0C10.6644 0 10.7146 0.0102777 10.7615 0.0302453C10.8084 0.0502129 10.851 0.0794764 10.8868 0.116357C10.9593 0.190862 11 0.291826 11 0.397089C11 0.502353 10.9593 0.603316 10.8868 0.67782L5.81095 5.88364C5.77513 5.92052 5.73255 5.94979 5.68568 5.96975C5.6388 5.98972 5.58854 6 5.53778 6C5.48702 6 5.43676 5.98972 5.38988 5.96975C5.34301 5.94979 5.30043 5.92052 5.26461 5.88364L0.188008 0.67782C0.13406 0.622258 0.0973454 0.551568 0.0824842 0.474649C0.0676231 0.397731 0.0752811 0.318023 0.104494 0.245559C0.133707 0.173095 0.183167 0.111114 0.246652 0.0674195C0.310136 0.023725 0.384806 0.000268936 0.461259 6.19888e-06Z" fill="#333333"/>
</svg>
