<svg width="40" height="39" viewBox="0 0 40 39" fill="none" xmlns="http://www.w3.org/2000/svg">
<path d="M16.7027 26.9063C16.7027 26.762 16.7593 26.6179 16.8724 26.5076L24.0588 19.5L16.8724 12.4935C16.8186 12.4413 16.7759 12.3792 16.7468 12.3108C16.7177 12.2424 16.7027 12.1691 16.7027 12.095C16.7027 12.021 16.7177 11.9476 16.7468 11.8793C16.7759 11.8109 16.8186 11.7488 16.8724 11.6965C16.9811 11.5907 17.1284 11.5313 17.282 11.5313C17.4355 11.5313 17.5828 11.5907 17.6915 11.6965L25.2863 19.1016C25.3401 19.1539 25.3828 19.216 25.4119 19.2844C25.4411 19.3528 25.4561 19.4261 25.4561 19.5001C25.4561 19.5742 25.4411 19.6475 25.4119 19.7159C25.3828 19.7843 25.3401 19.8464 25.2863 19.8987L17.6915 27.3049C17.6105 27.3836 17.5073 27.4372 17.3951 27.4589C17.2829 27.4805 17.1666 27.4694 17.0609 27.4268C16.9552 27.3841 16.8648 27.312 16.801 27.2194C16.7373 27.1267 16.7031 27.0178 16.7027 26.9063V26.9063Z" fill="white" stroke="white"/>
<path d="M1.5 36.9745L1.5 2.02555C1.5 1.95143 1.51499 1.87803 1.54412 1.80957C1.57325 1.7411 1.61594 1.67891 1.66975 1.62656C1.72356 1.5742 1.78743 1.5327 1.8577 1.50444C1.92798 1.47618 2.00328 1.4617 2.07931 1.46185L37.9207 1.46185C37.9967 1.46171 38.072 1.47618 38.1423 1.50444C38.2126 1.5327 38.2764 1.5742 38.3303 1.62656C38.3841 1.67892 38.4268 1.74111 38.4559 1.80957C38.485 1.87803 38.5 1.95143 38.5 2.02555L38.5 36.9745C38.5 37.0486 38.485 37.122 38.4559 37.1905C38.4268 37.259 38.3841 37.3211 38.3303 37.3735C38.2764 37.4259 38.2126 37.4674 38.1423 37.4956C38.072 37.5239 37.9967 37.5384 37.9207 37.5382L2.0793 37.5382C2.00328 37.5384 1.92798 37.5239 1.8577 37.4956C1.78743 37.4674 1.72355 37.4259 1.66975 37.3735C1.61594 37.3211 1.57325 37.259 1.54412 37.1905C1.51499 37.122 1.5 37.0486 1.5 36.9745ZM2.65861 2.58924L2.65861 36.4108L37.3414 36.4108L37.3414 2.58924L2.65861 2.58924Z" fill="white" stroke="white"/>
</svg>
