<svg width="56" height="56" viewBox="0 0 56 56" fill="none" xmlns="http://www.w3.org/2000/svg">
<g clip-path="url(#clip0)">
<path d="M23.0981 39.2911C23.0981 39.0711 23.1823 38.8515 23.3504 38.6834L34.0324 28L23.3504 17.3183C23.2704 17.2386 23.207 17.1439 23.1637 17.0397C23.1204 16.9354 23.0981 16.8236 23.0981 16.7107C23.0981 16.5978 23.1204 16.486 23.1637 16.3818C23.207 16.2775 23.2704 16.1828 23.3504 16.1031C23.512 15.9419 23.7309 15.8513 23.9592 15.8513C24.1874 15.8513 24.4064 15.9419 24.568 16.1031L35.857 27.3926C35.937 27.4723 36.0005 27.5669 36.0438 27.6712C36.0871 27.7755 36.1094 27.8873 36.1094 28.0002C36.1094 28.1131 36.0871 28.2248 36.0438 28.3291C36.0005 28.4334 35.937 28.528 35.857 28.6077L24.568 39.8989C24.4475 40.0189 24.2942 40.1005 24.1274 40.1336C23.9606 40.1666 23.7877 40.1496 23.6306 40.0846C23.4734 40.0197 23.339 39.9097 23.2443 39.7685C23.1495 39.6273 23.0987 39.4612 23.0981 39.2911Z" fill="black"/>
<path d="M0.500108 54.6406L0.500111 1.35937C0.500107 1.24637 0.522388 1.13448 0.565685 1.03011C0.608978 0.925732 0.672436 0.830919 0.752419 0.751096C0.832401 0.671273 0.927341 0.608008 1.03181 0.564921C1.13627 0.521835 1.2482 0.499773 1.3612 0.499999L54.637 0.500002C54.75 0.499776 54.8619 0.521837 54.9663 0.564924C55.0708 0.60801 55.1658 0.671276 55.2457 0.751098C55.3257 0.830921 55.3892 0.925734 55.4325 1.03011C55.4758 1.13449 55.498 1.24638 55.498 1.35938L55.498 54.6406C55.498 54.7536 55.4758 54.8655 55.4325 54.9699C55.3892 55.0743 55.3257 55.1691 55.2457 55.2489C55.1657 55.3287 55.0708 55.392 54.9663 55.4351C54.8619 55.4782 54.75 55.5002 54.637 55.5L1.3612 55.5C1.2482 55.5002 1.13627 55.4782 1.0318 55.4351C0.927339 55.392 0.832399 55.3287 0.752416 55.2489C0.672433 55.1691 0.608976 55.0743 0.565683 54.9699C0.522386 54.8655 0.500104 54.7536 0.500108 54.6406ZM2.22229 2.21875L2.22229 53.7812L53.7759 53.7812L53.7759 2.21875L2.22229 2.21875Z" fill="black"/>
</g>
<defs>
<clipPath id="clip0">
<rect width="56" height="56" fill="white" transform="translate(56) rotate(90)"/>
</clipPath>
</defs>
</svg>
