<svg width="10" height="16" viewBox="0 0 10 16" fill="none" xmlns="http://www.w3.org/2000/svg">
<path d="M9.25339 0.625777C9.25339 0.770082 9.19673 0.914163 9.08364 1.02442L1.89728 8.03202L9.08364 15.0385C9.13745 15.0908 9.18014 15.1529 9.20927 15.2213C9.2384 15.2896 9.25339 15.363 9.25339 15.437C9.25339 15.5111 9.2384 15.5844 9.20927 15.6528C9.18014 15.7212 9.13745 15.7833 9.08364 15.8356C8.97495 15.9413 8.82765 16.0007 8.67408 16.0007C8.52051 16.0007 8.37322 15.9413 8.26452 15.8356L0.669754 8.43044C0.615949 8.37817 0.573257 8.31606 0.544126 8.24767C0.514996 8.17928 0.500001 8.10596 0.500001 8.03191C0.500002 7.95785 0.514996 7.88453 0.544127 7.81614C0.573257 7.74775 0.615949 7.68564 0.669755 7.63338L8.26453 0.227131C8.34559 0.148427 8.44872 0.0948635 8.56093 0.0731827C8.67315 0.0515018 8.78943 0.0626742 8.89515 0.105293C9.00087 0.147912 9.09129 0.22007 9.15504 0.312687C9.21878 0.405304 9.253 0.51424 9.25339 0.625777Z" fill="black"/>
</svg>
