<svg width="19" height="20" viewBox="0 0 19 20" fill="none" xmlns="http://www.w3.org/2000/svg">
<path d="M12.8609 12.3618L15.8625 15.3633C15.9406 15.4414 15.9406 15.5681 15.8625 15.6462L15.1453 16.3633C15.0672 16.4414 14.9406 16.4414 14.8625 16.3633L11.8609 13.3618C10.9321 14.0784 9.7678 14.5048 8.50391 14.5048C5.46634 14.5048 3.00391 12.0423 3.00391 9.00476C3.00391 5.96719 5.46634 3.50476 8.50391 3.50476C11.5415 3.50476 14.0039 5.96719 14.0039 9.00476C14.0039 10.2687 13.5776 11.433 12.8609 12.3618ZM8.49915 13.5C10.9844 13.5 12.9991 11.4853 12.9991 9C12.9991 6.51472 10.9844 4.5 8.49915 4.5C6.01386 4.5 3.99915 6.51472 3.99915 9C3.99915 11.4853 6.01386 13.5 8.49915 13.5Z" fill="black"/>
</svg>
