<svg width="200" height="60" viewBox="0 0 200 60" fill="none" xmlns="http://www.w3.org/2000/svg">
<path fill-rule="evenodd" clip-rule="evenodd" d="M52.9332 25.8549L52.9334 14.9331C52.932 14.9319 52.9118 14.9123 52.9091 14.9097C48.9616 11.5047 32.8974 4.73517 25.3043 11.6058C16.0483 19.9808 31.735 32.0141 44.0544 36.4626C35.6849 32.9016 23.7381 25.4513 29.6683 20.267C34.58 16.7655 48.7419 21.6843 52.9149 25.8367L52.9332 25.8549Z" fill="#808285"/>
<path fill-rule="evenodd" clip-rule="evenodd" d="M22.2353 25.1876C20.6754 25.2717 20.1736 25.7152 19.772 26.3969C18.6394 28.3174 19.4147 30.6301 19.0042 33.2234C18.8595 34.1394 18.3289 36.8111 14.3477 38.7931C13.7931 39.069 12.6751 39.3838 11.4748 39.0998C10.4874 38.8557 7.14176 33.363 9.17689 32.385C10.3167 32.0487 14.459 31.8934 15.7231 28.8159C16.3881 27.1974 17.044 25.1316 17.7967 23.8633C18.4831 22.7068 19.5414 22.4154 20.9752 22.7705C21.2572 23.5054 21.8033 24.3715 22.2353 25.1876Z" fill="#F7931D"/>
<path fill-rule="evenodd" clip-rule="evenodd" d="M40.341 37.4044C40.8624 37.6515 41.4861 37.9006 42.1186 38.1401L43.95 38.819C44.0893 38.8713 44.2234 38.9223 44.3507 38.9719C43.9442 40.6606 45.2457 42.1024 47.1844 43.5963L47.6253 43.9293L48.3203 44.4336L49.2959 45.1187L50.565 46.0039L51.0796 46.3692L51.5944 46.7421L52.1066 47.1233L52.6137 47.5135C53.3691 48.1059 54.0985 48.7311 54.762 49.4003L55.124 49.8317L55.7344 50.5472L56.0796 50.9631C57.3823 52.5575 59.0479 54.9111 59.6297 57.8348L59.7266 58.3606L59.7583 58.5781C59.8327 59.1939 59.7519 59.7887 58.9115 59.9626C58.7172 60.0465 58.0687 59.9878 57.2125 59.8016L56.7682 59.698C56.6917 59.679 56.614 59.6591 56.5353 59.6383L56.0519 59.5036C53.7504 58.8276 50.8778 57.4923 50.5674 55.6904L50.5643 55.6024L50.5658 54.9878L50.5574 54.642L50.5443 54.3818L50.523 54.0994L50.4916 53.796L50.4485 53.4727L50.3917 53.1308C50.381 53.0723 50.3697 53.0131 50.3576 52.9532L50.277 52.5857C49.8744 50.8955 48.9196 48.7315 46.6671 46.5899L46.4923 46.411L46.1298 46.0498L45.5598 45.5001L43.9645 43.995L43.5662 43.6116L43.1747 43.2261L42.7932 42.8387C41.0417 41.027 39.7252 39.1655 40.341 37.4044ZM47.088 39.2465C48.3651 39.6985 49.7169 40.0864 50.9389 40.4296C51.0207 42.1123 52.5153 43.329 54.5994 44.5212L55.1105 44.807L55.6417 45.0933L56.1905 45.3814L58.2131 46.4231L59.1095 46.8957L59.7106 47.2229L60.3116 47.5613C61.4117 48.1929 62.4984 48.8881 63.5016 49.6846L63.7918 49.9362L64.8866 50.8413L65.3095 51.1981L65.7529 51.5849C67.1841 52.8592 68.8475 54.6087 70.0189 57.0509L70.2498 57.5734L70.3373 57.7903C70.5701 58.4059 70.6478 59.0149 69.8825 59.2698C69.7859 59.3299 69.5462 59.375 69.2057 59.3983L68.8903 59.4127C68.7212 59.417 68.5358 59.417 68.3376 59.412L67.9248 59.3954C67.8534 59.3914 67.7809 59.3869 67.7073 59.3818L67.254 59.3436L66.7812 59.2898C66.701 59.2794 66.6204 59.2684 66.5392 59.2567L66.0481 59.1777C64.1527 58.841 62.1533 58.1072 61.5578 56.7304L61.5047 56.4217L61.451 56.1684L61.3761 55.8678L61.2763 55.5228L61.1939 55.2697L61.0974 54.9992L60.9859 54.7122L60.858 54.4096L60.7126 54.0922L60.5486 53.761L60.3649 53.4169L60.1602 53.0608C59.2981 51.6137 57.9059 49.9 55.6515 48.1803L55.15 47.8018L54.7078 47.478L54.2523 47.1575L53.5508 46.681L52.1206 45.731L51.6471 45.4117L51.1803 45.0894L50.7234 44.7633L50.2793 44.4323C48.3878 42.986 46.9473 41.3755 47.088 39.2465ZM33.895 34.3008L34.2514 34.5344L35.0389 35.038C35.8605 35.5556 36.7534 36.0951 37.4365 36.4726C36.6909 38.0477 37.5139 39.551 38.9406 41.1756L39.2801 41.5528L39.6384 41.9348L40.0128 42.3221L40.5991 42.9144L41.8735 44.1927C42.7518 45.0857 43.6393 46.0343 44.4244 47.0609L44.8837 47.6808L45.4363 48.3981L45.6471 48.6838L45.8653 48.9938C46.8951 50.4981 48.0501 52.8157 47.7063 56.2216L47.6531 56.6486C47.55 57.3453 47.3101 58.0895 46.2631 58.1643C46.1958 58.1739 46.0596 58.1523 45.8695 58.1029L45.6163 58.0305L45.3171 57.9327L44.9774 57.8109L44.603 57.6664C44.5381 57.6405 44.4719 57.6137 44.4046 57.586L43.9888 57.41L43.5526 57.2145L43.1016 57.001C42.7972 56.853 42.4868 56.6938 42.178 56.5252L41.7169 56.2655C39.961 55.2448 38.382 53.9434 38.4248 52.6982L38.4623 52.5768L38.8109 51.6661L38.8957 51.4261L38.9798 51.1678L39.0608 50.8916L39.1363 50.5979C39.1483 50.5476 39.1599 50.4965 39.1712 50.4447L39.2336 50.1256C39.5094 48.5431 39.3758 46.3847 37.5901 43.8619C37.3277 43.4489 37.0315 43.0243 36.7204 42.5919L35.6446 41.1131L35.2129 40.5042C35.1658 40.4364 35.119 40.3685 35.0726 40.3006L34.7998 39.893C33.5097 37.9224 32.6733 35.9504 33.895 34.3008ZM28.3554 30.753L29.6901 31.9125L30.28 32.4147C30.6695 32.7401 31.0432 33.0373 31.3515 33.2492C30.3177 33.9786 30.2219 34.4372 30.3311 34.9634L30.374 35.1418L30.5084 35.628C30.5172 35.663 30.5257 35.6986 30.5339 35.7349C30.7298 36.6056 31.2292 37.5053 31.8405 38.4604L32.2625 39.1057L32.705 39.7692L33.1555 40.4527C33.8308 41.4936 34.4903 42.6078 34.9425 43.8218L35.0236 44.001L35.4017 44.7813L35.524 45.0468L35.6471 45.3308L35.7678 45.6329L35.8833 45.9528C36.4048 47.4871 36.6524 49.5954 35.2325 52.1493C34.8002 52.8975 33.7523 53.7893 33.1996 53.76C33.0889 53.7542 32.9052 53.6924 32.6682 53.5841L32.4142 53.4606C32.3692 53.4376 32.3228 53.4133 32.2752 53.3879L31.9761 53.2218C31.9241 53.1919 31.8711 53.1609 31.8171 53.1289L31.4827 52.9249L31.1303 52.6982L30.7642 52.4509L30.3888 52.1852C30.3257 52.1395 30.2624 52.0931 30.199 52.046L29.8178 51.7565C29.7543 51.7071 29.6908 51.6571 29.6275 51.6066L29.2504 51.298C29.1881 51.2456 29.1262 51.1929 29.0647 51.1397L28.7015 50.8167L28.353 50.4867C27.2208 49.3774 26.407 48.1868 26.6399 47.2636C26.708 47.1588 26.8141 47.0396 26.9458 46.9036L27.4787 46.3684L27.7655 46.0667L27.9618 45.8461L28.158 45.6093C29.1009 44.4244 29.9235 42.6484 28.8831 39.9731C28.7525 39.4503 28.5714 38.907 28.3726 38.3539L27.9096 37.0978C27.4447 35.8342 27.0156 34.5624 26.9972 33.4051C26.9812 32.3764 27.3221 31.3035 28.3554 30.753ZM24.0003 26.7449C24.1813 26.9679 24.3895 27.2502 24.6098 27.5559L25.2927 28.5071C25.5227 28.8236 25.7501 29.1276 25.9601 29.3831C24.8777 29.842 24.6085 30.1728 24.493 30.6469L24.4576 30.8205L24.3993 31.2142C24.2227 32.4239 24.5812 33.5646 25.0322 34.7808L25.3809 35.7095C25.6939 36.5516 25.9988 37.4433 26.1644 38.4275L26.1937 38.6206L26.222 38.8524L26.2472 39.1193L26.2667 39.4181L26.2784 39.7452C26.3144 41.503 25.9423 44.2619 23.7251 45.9125L23.4809 46.0935C22.9449 46.4844 22.3432 46.8529 21.2712 46.9165C21.0792 46.9254 20.7444 46.7603 20.3364 46.4733L20.0834 46.2869L19.8161 46.0738L19.538 45.8365C19.4909 45.795 19.4435 45.7527 19.3959 45.7095L19.1077 45.4405C19.0593 45.3941 19.0109 45.3469 18.9624 45.2991L18.6716 45.004L18.3833 44.6947C18.2403 44.5369 18.0995 44.3747 17.9627 44.2095L17.6952 43.8755C16.6509 42.5269 15.9462 41.0467 16.5424 40.1547C16.6275 40.0821 16.7393 40.0109 16.8719 39.9384L17.0858 39.8283L17.3267 39.7142L18.0193 39.398L18.4753 39.1766L18.7872 39.0115C20.0924 38.2911 21.4317 37.1441 21.4088 34.8995L21.4066 34.3951L21.4174 33.3238C21.4206 33.1402 21.4245 32.9549 21.4288 32.7687L21.46 31.649L21.5524 29.0684C21.6017 27.7145 22.5452 26.9046 24.0003 26.7449ZM19.2645 18.8589C19.2541 19.0864 19.2503 19.3338 19.2497 19.5924L19.2577 20.8027C19.2585 20.939 19.2589 21.0749 19.2584 21.2093C17.9835 20.9798 17.4316 21.2081 16.9865 21.5567L16.8328 21.6841L16.6057 21.8869C15.9407 22.4824 15.6106 23.1143 15.3307 23.8138L15.1484 24.2905L14.9623 24.7892C14.7031 25.4699 14.3835 26.2149 13.8035 27.0463L13.3682 27.6335L13.1662 27.8873L13.0054 28.0759L12.8216 28.2771C12.789 28.3115 12.7553 28.3464 12.7206 28.3817L12.4991 28.5972C11.5597 29.4738 9.96463 30.5059 7.21108 30.9858C6.60385 31.0912 5.42308 31.0819 4.41395 30.6517C4.21962 30.559 4.03557 30.1055 3.88966 29.4947L3.80691 29.111C3.71623 28.6451 3.64696 28.1221 3.60866 27.6119L3.58363 27.1792C3.53832 26.0427 3.66904 25.0769 4.08988 25.1159L4.90619 25.1366L5.46464 25.1375L5.88082 25.1285L6.32609 25.1089L6.79532 25.0759C8.63339 24.9205 10.8861 24.413 12.2496 22.8862L12.6367 22.4442L13.4952 21.4437L13.9494 20.9244C14.7133 20.0645 15.4993 19.2601 16.1297 18.9185L16.2239 18.871L16.3261 18.8281L16.4408 18.7907C16.4612 18.7849 16.4823 18.7794 16.5042 18.7742L16.6461 18.746L16.8117 18.7249L17.0055 18.7115C17.0404 18.7099 17.0767 18.7087 17.1144 18.7079L17.3591 18.7073L17.6432 18.7162L17.9713 18.7351L18.5558 18.7838L19.0135 18.8308C19.0947 18.8396 19.1783 18.849 19.2645 18.8589ZM18.8131 15.4133L18.6998 15.7821L18.4693 16.5678C18.3892 16.8387 18.3043 17.1176 18.2097 17.401C16.5951 16.9456 15.9926 17.0355 15.3724 17.3929L15.1848 17.5078C14.8486 17.7244 14.5248 18.0104 14.176 18.3533L13.87 18.6608L13.017 19.5401L12.6268 19.9315C12.1516 20.4001 11.6033 20.9096 10.9442 21.4476L10.4645 21.8279L10.2238 22.0039L10.0336 22.1326C9.96604 22.1767 9.89432 22.2218 9.81823 22.2676L9.57667 22.4064L9.30777 22.5467C8.22319 23.0839 6.51181 23.5984 3.89325 23.4716L3.36646 23.4384L2.95942 23.4011C2.38143 23.3385 1.67958 23.2169 1.06 22.9466C0.296053 22.5573 1.27862 18.2591 2.32953 18.485L2.49797 18.4947L2.86589 18.5249L4.18534 18.659L4.68492 18.7022C6.47725 18.8412 8.70718 18.8212 10.6725 17.7229L10.9416 17.5701L11.514 17.2334L12.7428 16.4971L13.3685 16.1325C14.1975 15.6597 14.9923 15.2554 15.5894 15.1063L15.8282 15.0488L15.972 15.0212L16.1362 14.9983L16.3242 14.9831C16.8265 14.9573 17.581 15.0313 18.8131 15.4133ZM19.313 12.3852C19.1713 12.5446 19.0408 12.712 18.9108 12.8851L18.5115 13.4201C18.3717 13.6028 18.2218 13.7892 18.0509 13.9771C16.9056 13.6194 16.2525 13.5918 15.6311 13.6833L15.3449 13.7333C15.297 13.7428 15.2489 13.7528 15.2004 13.7632C14.8057 13.8477 14.4013 14.026 13.9474 14.2653L13.5971 14.4558L12.3981 15.1337L11.9367 15.3849L11.4383 15.6437C10.9201 15.9052 10.3409 16.1734 9.6838 16.4344L9.16161 16.6335L8.93629 16.7123L8.67275 16.7974L8.37101 16.8857C8.26405 16.9154 8.15073 16.945 8.03104 16.9742L7.65287 17.0596C6.39479 17.3222 4.56185 17.4927 2.15382 17.1259C1.62988 17.0461 0.761066 16.7865 0.144461 16.3638C-0.164676 16.1023 0.0538719 15.4166 0.501427 14.711L0.679411 14.4463L0.875365 14.1845C1.58857 13.2786 2.56763 12.5128 3.13726 12.8013L3.29609 12.8371L3.64064 12.923L4.64971 13.189L5.10825 13.3014C6.68595 13.6709 8.74712 13.9596 11.028 13.2473L11.6191 13.0589L13.5909 12.4089L14.0882 12.2521C14.4845 12.1307 14.8324 12.0349 15.1078 11.9811L15.3182 11.9464L15.5693 11.9187L15.8021 11.9002L16.0796 11.8855L16.3953 11.8779C16.5061 11.877 16.6222 11.8778 16.7424 11.8809L17.1145 11.8977C17.8156 11.9431 18.6092 12.0749 19.313 12.3852ZM48.0579 4.8088C48.2621 4.8324 48.5943 4.93995 48.9804 5.09816L49.3228 5.24539C49.4989 5.32442 49.681 5.41102 49.8633 5.50255L50.2264 5.6914C51.1261 6.17609 51.9335 6.74039 51.9201 7.05653C51.036 7.39313 50.8835 7.79917 51.886 9.15749C51.9608 9.25884 52.0436 9.36429 52.1313 9.47168L52.4061 9.79752L53.3404 10.8426C53.4116 10.9238 53.4742 10.9972 53.5253 11.0606L53.6953 11.2882L53.8591 11.5225L53.9655 11.6899C54.2729 12.2015 54.4447 12.7819 53.6746 13.0289C53.2115 12.8655 52.7719 12.6128 52.3269 12.3448L51.6517 11.9406C51.5373 11.8744 51.4216 11.8096 51.3042 11.7473C51.8472 11.4829 51.7312 10.8028 51.5458 10.5938L51.1084 10.0979L50.8693 9.84606L50.6828 9.66739L50.454 9.46336L50.1655 9.21963L49.7201 8.85694L49.3803 8.5632L49.0901 8.29819L48.7684 7.99025C48.2706 7.50149 47.7234 6.9038 47.3817 6.35891C47.1841 6.04369 47.137 5.00147 48.0579 4.8088ZM4.87537 8.40509L5.41469 8.58617L6.03381 8.80044L6.48882 8.95282C6.56739 8.97847 6.64731 9.00419 6.72855 9.02986L7.23167 9.18231C8.70102 9.60738 10.538 9.95261 12.6164 9.67094L13.1637 9.60022L13.7365 9.53252L14.3196 9.46911L15.1804 9.38484L15.979 9.31741L16.4515 9.28394L16.8584 9.26113L17.1845 9.25028L17.9168 9.24555L18.2855 9.24885C19.1826 9.26979 20.3091 9.40456 21.0539 10.0975L20.6484 10.429L19.7173 11.1708C19.6406 11.2326 19.5653 11.2936 19.4924 11.3534L19.255 11.2659L18.8385 11.1219C18.3301 10.9556 17.9978 10.8867 17.6947 10.8554L17.4706 10.8381L17.0003 10.8235C16.46 10.8106 15.9128 10.8707 15.2898 10.9912L14.8624 11.0804L14.408 11.1867L13.922 11.3093L13.1238 11.5218L11.2222 12.0398L10.7764 12.1578L10.5821 12.1996C10.5465 12.2065 10.5093 12.2133 10.4704 12.2201L10.2177 12.2594C10.1723 12.2657 10.1253 12.2718 10.0767 12.2778L9.76536 12.311L9.41477 12.3382C9.35306 12.3421 9.28971 12.3457 9.22472 12.349L8.81507 12.3641C8.60037 12.3692 8.37085 12.3706 8.12645 12.3673L7.61779 12.3542C6.5607 12.3143 5.26485 12.1897 3.72623 11.9225C3.25208 11.84 2.35144 11.4522 1.73005 11.0041C0.864554 10.3062 3.62487 8.07483 4.87537 8.40509ZM46.2299 4.81691C46.1537 4.88126 46.0844 4.92905 46.0234 4.96791L45.8657 5.06531C45.7785 5.12253 45.7284 5.1745 45.7245 5.28221C45.7159 5.52133 45.9023 5.84512 46.2717 6.28792L46.5152 6.56816L46.802 6.87862C46.8534 6.93297 46.9065 6.98865 46.9615 7.04569C47.0993 7.18869 47.2563 7.33725 47.4219 7.48691L47.7611 7.78637L48.4311 8.36241L48.7236 8.62313C48.858 8.74696 48.9722 8.86001 49.0555 8.95781L49.1657 9.09801L49.5007 9.45125C49.8854 9.86421 50.3728 10.496 50.1294 11.2254C49.6095 11.0186 48.9538 10.6825 48.3045 10.3273L47.6626 9.96987C47.5577 9.91061 47.4543 9.85184 47.3531 9.79408C47.6121 9.33734 47.4589 9.08295 47.2861 8.90716L47.1087 8.74062L46.6964 8.32991L46.5046 8.14618L46.3037 7.9644C46.2687 7.93375 46.2327 7.90278 46.1955 7.87132L45.9546 7.67492C45.9112 7.64066 45.8659 7.60551 45.8185 7.56927L45.5061 7.33722L45.1285 7.0697L44.8224 6.8606L44.4444 6.61397L44.1205 6.3965C43.4873 5.96175 42.6672 5.33497 42.1466 4.61961L41.9911 4.38841L41.9351 4.29114C41.7802 4.00198 41.5518 3.38212 42.0968 2.75081C42.189 2.66899 42.5676 2.7638 43.061 2.95159L43.4051 3.08964L43.7718 3.24973L44.1501 3.42635L44.5284 3.614L44.8956 3.80717L45.2403 4.00035C45.8447 4.35115 46.279 4.67425 46.2299 4.81691ZM8.51834 4.99571L8.83203 5.15182L9.81766 5.67794L10.1742 5.86106C11.2726 6.40932 12.6486 6.93216 14.7806 7.01005L15.6725 7.03118C15.7626 7.03417 15.8535 7.03758 15.9448 7.04137L16.7728 7.08374L17.8403 7.15465L19.1496 7.24607L19.5762 7.26443L20.0889 7.27329L20.4268 7.28818L20.8031 7.31672C21.7169 7.40314 22.8478 7.642 23.5148 8.31984C23.4124 8.37956 23.2841 8.44657 23.1402 8.51813L22.6728 8.74374L22.1757 8.98022C21.9304 9.09844 21.6976 9.21458 21.5131 9.31939C20.74 8.90987 20.28 8.73913 19.8779 8.64304L19.6415 8.59303L19.2861 8.53437L19.1613 8.51524C18.91 8.47633 18.664 8.45761 18.4105 8.45359L18.1018 8.45547C18.0495 8.45684 17.9967 8.45871 17.9432 8.46104L17.6145 8.48014L17.2662 8.50808L15.8214 8.6452L15.0577 8.70689L14.488 8.74373L13.864 8.77468L12.5243 8.81984L12.2148 8.8259L11.6758 8.82581L11.2707 8.81629L10.8324 8.79649C10.7568 8.79221 10.6799 8.78741 10.6018 8.78203L10.1191 8.74253C9.04431 8.64042 7.7868 8.42551 6.4793 7.99241C6.03864 7.84652 5.09787 7.23396 4.58779 6.75254C4.28872 6.33737 5.44158 5.64525 6.6049 5.2436L6.93631 5.13724C7.59473 4.94228 8.21173 4.85981 8.51834 4.99571ZM40.3805 2.70374L40.3832 3.13084L40.3941 3.37233C40.4408 4.01531 40.6395 4.33454 41.4621 5.00685L41.779 5.2599C41.8364 5.30489 41.8962 5.35137 41.9584 5.39949C42.1241 5.52777 42.3098 5.65945 42.5039 5.79127L42.9001 6.05412L43.679 6.55761L44.021 6.78661C44.179 6.89586 44.315 6.99651 44.4176 7.0853L44.5613 7.21876L44.9086 7.49325C45.3676 7.85858 46.004 8.44252 45.9224 9.22282C45.0938 8.99695 44.2233 8.71786 43.2208 8.2966C43.3605 7.85554 43.149 7.55415 42.927 7.35333L42.7952 7.24459L42.6287 7.12264C42.5581 7.06987 42.4924 7.02295 42.4302 6.98038L42.2525 6.8642L42.0867 6.76508L41.4731 6.42221L41.2518 6.28821L40.994 6.12164C40.9475 6.09066 40.8991 6.05796 40.8487 6.02333L40.5195 5.79101C40.4004 5.70489 40.2717 5.60958 40.1316 5.50359C40.0977 5.47787 40.0485 5.44765 39.9866 5.41313L39.7643 5.29683L38.7713 4.80444C38.7071 4.77149 38.642 4.73765 38.5762 4.70296L38.1762 4.48467C37.5714 4.14232 36.9606 3.7342 36.5521 3.27783C36.4065 3.11534 35.8574 2.09499 36.0574 1.41739C36.1152 1.29275 36.604 1.35 37.2336 1.49643L37.626 1.59425C37.6934 1.61209 37.7617 1.63064 37.8305 1.6498L38.2474 1.77138L38.6634 1.90325L39.0644 2.04095C39.7773 2.29603 40.3448 2.55809 40.3805 2.70374ZM34.6216 1.37481L34.861 2.0864C34.8734 2.12144 34.886 2.15589 34.8988 2.18983L34.9798 2.38794C35.2378 2.96761 35.6604 3.43218 37.0046 4.24028C37.148 4.32646 37.2992 4.4139 37.4549 4.50169L37.9323 4.76521L39.1108 5.39751L39.5231 5.62555C39.7149 5.73442 39.8827 5.83491 40.0151 5.92393L40.5305 6.29452C41.024 6.66084 41.7283 7.26423 41.8881 8.05608C41.1853 7.95127 40.5294 7.79503 39.8783 7.62107L38.9 7.35104C38.9994 6.87714 38.45 6.3138 38.1644 6.14662L37.2506 5.60194L36.9538 5.43639L36.7298 5.31931L36.3303 5.12402L36.0076 4.97514L35.4145 4.71421L34.7342 4.42386L34.3156 4.23103L33.9718 4.06336L33.5892 3.86734L33.179 3.64551C32.4786 3.25568 31.7097 2.76883 31.1048 2.23765L30.9285 2.07702C30.9006 2.05068 30.8645 2.01488 30.823 1.97076L30.6854 1.81466C30.4392 1.51682 30.1338 1.04024 30.1411 0.52974C30.144 0.447062 30.4081 0.436131 30.8089 0.473211L31.1332 0.509653L31.497 0.561874L31.8886 0.62765L32.2964 0.704755L32.7087 0.790965L33.1137 0.884054C33.18 0.900018 33.2455 0.916177 33.3099 0.932483L33.6822 1.03172C33.7415 1.04843 33.7994 1.06519 33.8554 1.08197L34.1687 1.18235C34.3608 1.24884 34.517 1.31398 34.6216 1.37481ZM12.9338 2.79622L13.0699 2.8764L13.3395 3.04531L14.1715 3.59841C14.2203 3.63026 14.2699 3.66218 14.3201 3.69414L14.6317 3.88589C15.4913 4.39611 16.598 4.88863 18.381 5.15451L23.2617 5.791L23.5521 5.83493C24.4038 5.97818 25.8169 6.34786 26.3907 7.36647C26.2139 7.4148 25.9585 7.45833 25.6652 7.50159L24.7119 7.63516L24.2257 7.70989C24.1467 7.72307 24.0691 7.73666 23.9936 7.75073L23.3787 7.32087L23.1656 7.18409C23.1462 7.17264 23.128 7.16227 23.1107 7.15283L23.0151 7.10598L22.9274 7.0735L22.7822 7.03468L22.5807 6.98434L22.0295 6.83309L21.5545 6.71392L21.2223 6.63965L20.8711 6.56998L20.4951 6.50528L20.0888 6.44593C20.0182 6.4365 19.9461 6.42732 19.8724 6.41838L19.4099 6.36777L18.9028 6.32346C18.8143 6.31662 18.7237 6.31006 18.6308 6.30379L18.0463 6.26965L17.4031 6.24276L16.3627 6.21534L15.8483 6.19224L15.4554 6.16648L15.0287 6.1299L14.5734 6.08036C13.4035 5.93852 12.0138 5.655 10.7699 5.07842L10.5377 4.96513L10.2268 4.80121L9.87034 4.59803C9.44099 4.34251 8.98702 4.03002 8.7469 3.74177C8.54748 3.39124 9.28434 3.05264 10.2045 2.84347L10.5567 2.77133L10.9172 2.7127C10.9775 2.70413 11.0378 2.69618 11.0978 2.68888L11.4544 2.65309C12.0981 2.60261 12.6728 2.63759 12.9338 2.79622ZM28.9208 0.758634L29.2589 1.34982L29.3788 1.54346L29.511 1.73664C29.9079 2.28403 30.5161 2.83491 31.8714 3.46616L32.8935 3.93175L35.3677 5.10358L35.7197 5.26206L36.0261 5.39384C36.6002 5.65482 37.7045 6.28493 37.5404 7.26492L37.0085 7.17203L36.5672 7.08695L35.4642 6.8549L35.0625 6.77741C34.9906 6.76423 34.9157 6.75088 34.8371 6.73731C34.7884 6.25491 34.2872 5.8064 33.9565 5.58366L33.6241 5.36648L33.4119 5.23751L33.199 5.11789C33.163 5.09857 33.1267 5.07953 33.0899 5.06069L32.8622 4.94974L32.6156 4.84101L32.3429 4.73166L32.0371 4.61884L31.6907 4.49971L31.0797 4.30296L30.6007 4.15559L29.9704 3.96586L29.6127 3.84895L29.3015 3.73942L28.9424 3.60519L28.5441 3.44672L28.1155 3.2645L27.6653 3.05901C26.9018 2.6974 26.085 2.2408 25.398 1.69921L25.3476 1.65629L25.2133 1.52465L25.0496 1.34519C24.7054 0.94908 24.2972 0.361528 24.4987 0.155152C25.2207 -0.245314 27.9949 0.191673 28.9208 0.758634ZM18.3261 1.58408C18.4078 1.64203 18.4867 1.70113 18.5638 1.76115L18.7906 1.94374L19.3504 2.41498L19.5878 2.60566C20.2819 3.14532 21.1818 3.67428 22.9261 4.04703L24.9778 4.48409L25.807 4.67036L26.3039 4.78998L26.7377 4.90397C26.8039 4.9224 26.8668 4.94053 26.9261 4.95833L27.2094 5.04784L27.6304 5.17658C28.4033 5.41955 29.4663 5.83084 29.8292 6.80352C29.6254 6.84703 29.3593 6.87256 29.0533 6.89417L28.0378 6.96134C27.8561 6.97526 27.6699 6.99173 27.4821 7.01249L27.2086 6.73157C26.7957 6.31556 26.5747 6.14525 26.192 5.99275L25.6532 5.80036L25.2226 5.66151L24.9192 5.57262L24.596 5.48609C24.5402 5.47184 24.4833 5.45767 24.4252 5.44357L24.0614 5.35968L23.6634 5.27693L23.2253 5.19483L22.7413 5.11289L22.2057 5.03061L21.6126 4.94751L20.7695 4.83791L20.3708 4.77557L19.8514 4.68245L19.4502 4.60255L19.0134 4.50788C18.938 4.49085 18.8614 4.47319 18.7838 4.45488L18.3071 4.33726C18.226 4.31634 18.1441 4.29477 18.0617 4.27253L17.5612 4.13097C16.7195 3.88142 15.8494 3.56314 15.101 3.1671C14.7545 2.98361 13.8336 1.98571 13.5497 1.42432C13.4741 0.879819 17.8234 0.836657 18.3261 1.58408ZM23.2452 0.720648C23.3434 0.816423 23.4369 0.914195 23.5292 1.01354L23.9831 1.50843L24.1748 1.70741L24.3818 1.90786C24.9951 2.47725 25.8567 3.05632 27.5025 3.57655L29.2261 4.1209L30.0445 4.39222L30.5378 4.56733C30.7708 4.65323 30.9811 4.73636 31.1601 4.81538L31.4224 4.93621L31.9078 5.14114C32.5048 5.40317 33.272 5.82734 33.6204 6.72598L31.0849 6.56378C30.8325 6.04038 30.4538 5.72262 30.0893 5.57751C29.7977 5.4617 29.5365 5.36425 29.259 5.26976L28.7584 5.10782L28.0078 4.88729L25.1231 4.09791L24.606 3.94564L24.2067 3.82146L23.7728 3.67956L23.3118 3.52031L22.8316 3.34408L22.3398 3.15123C21.6797 2.88318 21.0093 2.5718 20.4105 2.22097L20.1895 2.08756C19.871 1.88933 19.063 1.31974 18.7237 0.567043C18.5957 0.166793 20.0967 0.121565 21.4124 0.261106L21.7998 0.308341C22.4931 0.404476 23.0755 0.551354 23.2452 0.720648Z" fill="#015AAA"/>
<path fill-rule="evenodd" clip-rule="evenodd" d="M56.6318 18.7507H69.1074C70.6411 18.7507 71.726 19.0337 72.3628 19.599C73.0516 20.217 73.3961 21.302 73.3961 22.8536C73.3961 24.0636 73.2529 24.9576 72.967 25.5363C72.6811 26.1147 72.181 26.5489 71.466 26.8379C72.2459 27.1799 72.7623 27.5217 73.0159 27.8636C73.2692 28.2055 73.3961 28.8172 73.3961 29.6981V32.854H69.1074V30.3294C69.1074 29.9612 69.0099 29.6519 68.8151 29.4023C68.5681 29.0736 68.1979 28.9092 67.7039 28.9092H60.9205V32.854H56.6318V18.7507ZM60.9204 22.3999V25.26H67.8014C68.2692 25.26 68.604 25.1581 68.8054 24.9542C69.0069 24.7505 69.1074 24.3788 69.1074 23.8399C69.1074 23.3006 69.0036 22.926 68.7955 22.7155C68.5877 22.5053 68.2562 22.3999 67.8014 22.3999H60.9204ZM77.548 32.854V18.7507H92.5576V22.1634H81.8364V24.1161H92.0702V27.5086H81.8364V29.4418H92.5576V32.854H77.548ZM96.2029 18.7905V32.874H100.491V21.7695L100.803 22.3999L106.144 32.874H109.653L114.604 22.4032L114.916 21.7695V32.874H119.205V18.7905H111.895L108.23 26.7L107.881 27.3825L107.568 26.7L103.903 18.7905H96.2029ZM135.033 32.854H131.446L130.588 32.0019C130.224 32.2438 129.923 32.4228 129.684 32.5385C128.966 32.9066 128.306 33.1275 127.703 33.2013H125.614C124.772 33.1172 124.034 32.8804 123.399 32.4912C122.62 32.0073 122.157 31.3654 122.011 30.5662C121.98 30.3766 121.965 30.1979 121.965 30.0297C121.965 29.3353 122.162 28.704 122.557 28.1359C122.952 27.5678 123.483 27.1365 124.148 26.8421C123.877 26.5158 123.662 26.1714 123.501 25.8086C123.34 25.4457 123.259 25.0906 123.259 24.7435C123.259 24.3752 123.342 24.0174 123.509 23.6704C123.841 23.1653 124.281 22.784 124.826 22.5262C125.372 22.2685 125.951 22.1399 126.565 22.1399H128.592C129.403 22.1399 130.107 22.358 130.705 22.7971C131.303 23.2363 131.67 23.8623 131.805 24.6778C131.825 24.867 131.836 25.0037 131.836 25.0879C131.836 25.6059 131.67 26.0926 131.337 26.5475C131.066 26.9288 130.666 27.2945 130.136 27.6416L131.04 28.5935L131.742 27.7414H134.456C134.268 28.236 134.107 28.6145 133.972 28.8776C133.556 29.6981 133.135 30.2346 132.709 30.4871L135.033 32.854ZM127.532 26.0216C127.761 26.0216 127.979 25.89 128.187 25.6271C128.395 25.3641 128.499 25.0853 128.499 24.7907C128.499 24.5489 128.416 24.354 128.249 24.207C128.083 24.0596 127.812 23.9858 127.438 23.9858C127.189 23.9858 126.999 24.0622 126.869 24.2147C126.739 24.3674 126.674 24.5539 126.674 24.775C126.674 25.0801 126.76 25.3641 126.931 25.6271C127.103 25.89 127.303 26.0216 127.532 26.0216ZM128.92 30.2346L126.799 28.6883C126.394 28.7409 126.092 28.7934 125.895 28.846C125.291 29.0249 124.99 29.3036 124.99 29.6824C124.99 29.9665 125.208 30.2399 125.645 30.503C125.988 30.7029 126.357 30.8502 126.752 30.9447C126.856 30.9659 126.944 30.9763 127.017 30.9763C127.329 30.9763 127.683 30.8975 128.078 30.7398C128.473 30.5818 128.754 30.4135 128.92 30.2346ZM145.212 18.5537C149.188 18.5537 151.638 18.8889 152.561 19.5595C153.366 20.1382 153.769 21.6767 153.769 24.1751H149.461C149.461 23.3599 149.247 22.8404 148.818 22.6168C148.285 22.3409 147.083 22.2027 145.212 22.2027C143.12 22.2027 141.892 22.3671 141.528 22.6959C141.164 23.0247 140.982 24.0636 140.982 25.8124C140.982 27.548 141.164 28.5804 141.528 28.9092C141.892 29.2379 143.12 29.4023 145.212 29.4023C147.109 29.4023 148.295 29.2871 148.769 29.057C149.244 28.827 149.481 28.2846 149.481 27.4298H153.769C153.769 29.9413 153.379 31.48 152.6 32.0453C151.677 32.716 149.214 33.0515 145.212 33.0515C141.209 33.0515 138.789 32.6832 137.951 31.9466C137.113 31.2103 136.693 29.1591 136.693 25.7926C136.693 22.4393 137.096 20.4077 137.902 19.6976C138.773 18.9349 141.209 18.5537 145.212 18.5537ZM175.387 25.8124C175.387 29.2444 174.978 31.2958 174.159 31.9664C173.275 32.6897 170.611 33.0515 166.167 33.0515C162.918 33.0515 160.787 32.9329 159.773 32.6964C158.499 32.394 157.694 31.7364 157.356 30.7238C157.096 29.948 156.966 28.311 156.966 25.8124C156.966 22.3802 157.369 20.3289 158.175 19.6582C159.058 18.9218 161.722 18.5537 166.167 18.5537C170.598 18.5537 173.256 18.9151 174.139 19.6383C174.971 20.3222 175.387 22.3802 175.387 25.8124ZM161.255 25.8124C161.255 27.614 161.459 28.6627 161.869 28.9584C162.278 29.2545 163.711 29.4023 166.167 29.4023C168.636 29.4023 170.075 29.2545 170.484 28.9584C170.894 28.6627 171.099 27.614 171.099 25.8124C171.099 23.9976 170.894 22.9425 170.484 22.6464C170.075 22.3507 168.642 22.2027 166.186 22.2027C163.717 22.2027 162.278 22.3507 161.869 22.6464C161.459 22.9425 161.255 23.9976 161.255 25.8124ZM178.019 32.874V18.7905H182.307V32.874H178.019ZM185.173 18.7706H189.461V29.205H199.188V32.854H185.173V18.7706Z" fill="#808285"/>
<path fill-rule="evenodd" clip-rule="evenodd" d="M92.1473 37.3986C91.8188 37.2041 91.441 37.1073 91.0186 37.1073C90.3822 37.1073 89.8493 37.3164 89.4352 37.7328C89.041 38.1287 88.8417 38.6219 88.8417 39.1979C88.8417 39.7681 89.0326 40.2607 89.4108 40.6631C89.8229 41.0992 90.3641 41.3178 91.0186 41.3178C91.5904 41.3178 92.0779 41.1374 92.4685 40.7776C92.859 40.4183 93.0825 39.9471 93.1362 39.3764C93.1497 39.2332 93.0377 39.1095 92.8946 39.1095H90.4676L90.412 39.1159C90.3047 39.1412 90.2249 39.2379 90.2249 39.3534V39.679L90.2313 39.735L90.2545 39.7959C90.2957 39.8716 90.3757 39.923 90.4676 39.923L92.0939 39.9222L92.0533 39.9886L91.9687 40.094C91.908 40.1609 91.8387 40.2213 91.7607 40.2755C91.5397 40.4288 91.2995 40.5043 91.0332 40.5043C90.6262 40.5043 90.3009 40.3652 90.0413 40.0824C89.8016 39.8218 89.6851 39.5324 89.6851 39.2029C89.6851 38.8847 89.7871 38.6066 89.9951 38.3593C90.2408 38.0661 90.5754 37.9209 91.0186 37.9209C91.2582 37.9209 91.4684 37.9737 91.6533 38.0789C91.8162 38.1724 91.9459 38.3066 92.0439 38.4849C92.0866 38.5627 92.168 38.611 92.2564 38.611H92.6817L92.7447 38.6028C92.884 38.5657 92.9661 38.4086 92.9033 38.2674C92.7347 37.8882 92.4817 37.5964 92.1473 37.3986ZM146.129 37.6972C145.72 37.3048 145.21 37.1073 144.61 37.1073C144.009 37.1073 143.498 37.3087 143.089 37.7087C142.679 38.1102 142.472 38.6198 142.472 39.2223C142.472 39.8223 142.68 40.3286 143.093 40.7253C143.504 41.1194 144.014 41.3178 144.61 41.3178C145.211 41.3178 145.723 41.1145 146.131 40.7109C146.541 40.3063 146.748 39.7955 146.748 39.1932C146.748 38.5962 146.54 38.0922 146.129 37.6972ZM155.052 37.6972C154.643 37.3048 154.132 37.1073 153.533 37.1073C152.932 37.1073 152.42 37.3087 152.012 37.7087C151.602 38.1102 151.394 38.6197 151.394 39.2223C151.394 39.8223 151.603 40.3286 152.016 40.7253C152.426 41.1194 152.936 41.3178 153.533 41.3178C154.134 41.3178 154.645 41.1145 155.054 40.7109C155.464 40.3063 155.671 39.7955 155.671 39.1932C155.671 38.5962 155.463 38.0922 155.052 37.6972ZM186.627 37.1073C187.227 37.1073 187.738 37.3048 188.146 37.6972C188.558 38.0922 188.765 38.5961 188.765 39.1932C188.765 39.7956 188.559 40.3064 188.149 40.7109C187.74 41.1145 187.228 41.3178 186.627 41.3178C186.031 41.3178 185.521 41.1194 185.11 40.7253C184.698 40.3286 184.489 39.8223 184.489 39.2223C184.489 38.6197 184.696 38.1102 185.107 37.7086C185.515 37.3087 186.027 37.1073 186.627 37.1073ZM198.798 37.4949C198.57 37.237 198.257 37.1073 197.877 37.1073C197.469 37.1073 197.137 37.2506 196.902 37.5359C196.714 37.7603 196.619 38.0282 196.619 38.3282C196.619 38.7684 196.82 39.1062 197.204 39.3074L198.031 39.5991L198.112 39.6359C198.162 39.6625 198.205 39.6928 198.237 39.7253C198.309 39.7979 198.345 39.891 198.345 40.0192C198.345 40.1589 198.302 40.2709 198.212 40.368C198.128 40.4586 198.012 40.5043 197.848 40.5043C197.684 40.5043 197.57 40.4616 197.489 40.3785C197.396 40.2827 197.351 40.1629 197.351 40.0048C197.351 39.87 197.242 39.7608 197.108 39.7608H196.75L196.695 39.7672C196.587 39.7925 196.508 39.8893 196.508 40.0048C196.508 40.3849 196.64 40.7065 196.901 40.9527C197.158 41.1956 197.481 41.3178 197.857 41.3178C198.27 41.3178 198.61 41.1749 198.861 40.8909C199.078 40.6452 199.188 40.3526 199.188 40.0242C199.188 39.6089 199.031 39.2745 198.722 39.0453C198.591 38.9482 198.41 38.8631 198.176 38.7861L197.865 38.6919C197.71 38.6416 197.604 38.5934 197.551 38.5523C197.491 38.5064 197.462 38.4414 197.462 38.3329C197.462 38.2086 197.495 38.1079 197.562 38.022C197.614 37.9557 197.697 37.9209 197.833 37.9209C197.999 37.9209 198.106 37.968 198.177 38.062C198.231 38.1351 198.258 38.2196 198.258 38.3232C198.258 38.458 198.367 38.5672 198.501 38.5672H198.858L198.914 38.5608C199.021 38.5355 199.101 38.4387 199.101 38.3232C199.101 38.002 198.999 37.7219 198.798 37.4949ZM162.861 37.1073C163.241 37.1073 163.554 37.2369 163.782 37.495C163.984 37.722 164.086 38.0022 164.086 38.3232C164.086 38.4387 164.006 38.5355 163.899 38.5608L163.843 38.5672H163.485C163.351 38.5672 163.243 38.458 163.243 38.3232C163.243 38.2196 163.216 38.1351 163.161 38.062C163.091 37.968 162.984 37.9209 162.818 37.9209C162.682 37.9209 162.599 37.9557 162.547 38.022C162.48 38.1079 162.447 38.2086 162.447 38.3329C162.447 38.4414 162.475 38.5064 162.535 38.5523C162.588 38.5934 162.695 38.6416 162.85 38.6919L163.161 38.7861C163.395 38.8631 163.576 38.9482 163.707 39.0453C164.016 39.2745 164.173 39.6089 164.173 40.0242C164.173 40.3527 164.062 40.6453 163.846 40.8909C163.595 41.1749 163.254 41.3178 162.842 41.3178C162.466 41.3178 162.143 41.1956 161.885 40.9528C161.624 40.7066 161.492 40.3849 161.492 40.0048C161.492 39.8893 161.572 39.7925 161.679 39.7672L161.735 39.7608H162.093C162.227 39.7608 162.335 39.87 162.335 40.0048C162.335 40.163 162.381 40.2828 162.474 40.3785C162.555 40.4616 162.669 40.5043 162.832 40.5043C162.997 40.5043 163.113 40.4586 163.197 40.368C163.286 40.2709 163.33 40.1589 163.33 40.0192C163.33 39.891 163.294 39.7978 163.222 39.7254C163.189 39.6929 163.147 39.6625 163.097 39.636L163.015 39.5991L162.619 39.4613L162.188 39.3074C161.805 39.1062 161.603 38.7684 161.603 38.3282C161.603 38.0282 161.699 37.7603 161.886 37.5359C162.121 37.2506 162.453 37.1073 162.861 37.1073ZM112.848 37.1073C113.261 37.1073 113.633 37.2043 113.96 37.3989C114.29 37.5948 114.542 37.872 114.715 38.2256C114.785 38.3697 114.7 38.5352 114.554 38.5702L114.497 38.5769H114.071C113.989 38.5769 113.912 38.5349 113.867 38.4653C113.783 38.3339 113.685 38.2277 113.575 38.1455C113.372 37.9957 113.134 37.9209 112.853 37.9209C112.476 37.9209 112.179 38.0428 111.945 38.2895C111.709 38.5401 111.592 38.8402 111.592 39.2029C111.592 39.5764 111.714 39.8809 111.963 40.131C112.212 40.3813 112.512 40.5043 112.877 40.5043C113.07 40.5043 113.251 40.4602 113.424 40.3705C113.613 40.2741 113.764 40.1336 113.879 39.945C113.912 39.8908 113.964 39.8525 114.024 39.8367L114.086 39.8287H114.511C114.695 39.8287 114.812 40.0254 114.725 40.188C114.537 40.5398 114.281 40.8172 113.959 41.0167C113.635 41.2173 113.273 41.3178 112.877 41.3178C112.283 41.3178 111.778 41.1209 111.374 40.7295C110.958 40.3261 110.748 39.812 110.748 39.2029C110.748 38.607 110.952 38.1025 111.355 37.7045C111.758 37.3075 112.26 37.1073 112.848 37.1073ZM172.104 37.462C171.894 37.2253 171.607 37.1073 171.26 37.1073C170.93 37.1073 170.656 37.2177 170.453 37.4387C170.273 37.6366 170.181 37.875 170.181 38.1433C170.181 38.3455 170.233 38.5368 170.335 38.7133L170.401 38.8171L170.416 38.8353L170.335 38.8867L170.219 38.977L170.113 39.0781C169.877 39.3189 169.755 39.6185 169.755 39.9611C169.755 40.3465 169.878 40.674 170.124 40.9298C170.372 41.1886 170.703 41.3178 171.101 41.3178C171.397 41.3178 171.654 41.2413 171.865 41.0859L171.961 41.0057L172.055 40.9094C172.117 40.84 172.178 40.7599 172.237 40.6694L172.244 40.6575L172.851 41.2491L172.902 41.287C172.992 41.3377 173.108 41.3259 173.187 41.2513L173.443 41.0082L173.485 40.9557L173.51 40.896C173.533 40.8132 173.511 40.7205 173.445 40.656L172.671 39.8978L173.249 38.7915L173.27 38.7365C173.307 38.5881 173.197 38.4341 173.034 38.4341H172.633L172.58 38.4401L172.53 38.4573C172.482 38.4798 172.442 38.5177 172.417 38.5665L172.051 39.2816L171.845 39.0775L171.967 38.9929L172.024 38.9457L172.077 38.8969C172.277 38.7042 172.383 38.4715 172.383 38.2114C172.383 37.9256 172.289 37.6721 172.104 37.462ZM181.129 37.1073C181.542 37.1073 181.914 37.2043 182.241 37.3989C182.571 37.5949 182.823 37.8721 182.995 38.2257C183.065 38.3697 182.98 38.5352 182.835 38.5702L182.777 38.5769H182.352C182.269 38.5769 182.193 38.5349 182.148 38.4653C182.064 38.3339 181.966 38.2277 181.855 38.1455C181.653 37.9957 181.415 37.9209 181.134 37.9209C180.757 37.9209 180.46 38.0428 180.226 38.2895C179.989 38.5401 179.873 38.8403 179.873 39.2029C179.873 39.5764 179.995 39.8809 180.244 40.131C180.493 40.3813 180.793 40.5043 181.158 40.5043C181.351 40.5043 181.532 40.4602 181.705 40.3705C181.894 40.2741 182.045 40.1336 182.16 39.9451C182.193 39.8908 182.245 39.8525 182.305 39.8367L182.366 39.8287H182.792C182.975 39.8287 183.092 40.0254 183.006 40.1879C182.818 40.5398 182.562 40.8172 182.24 41.0167C181.916 41.2173 181.553 41.3178 181.158 41.3178C180.564 41.3178 180.059 41.1209 179.655 40.7295C179.239 40.3262 179.029 39.8121 179.029 39.2029C179.029 38.6071 179.233 38.1026 179.636 37.7045C180.039 37.3075 180.541 37.1073 181.129 37.1073ZM130.094 37.3989C129.767 37.2043 129.395 37.1073 128.982 37.1073C128.394 37.1073 127.892 37.3075 127.489 37.7045C127.086 38.1026 126.882 38.6071 126.882 39.2029C126.882 39.812 127.092 40.3261 127.508 40.7295C127.912 41.1209 128.417 41.3178 129.011 41.3178C129.407 41.3178 129.769 41.2173 130.093 41.0166C130.415 40.8172 130.671 40.5398 130.859 40.1879C130.945 40.0254 130.828 39.8287 130.645 39.8287H130.22L130.158 39.8367C130.098 39.8525 130.046 39.8908 130.013 39.945C129.898 40.1335 129.747 40.2741 129.558 40.3705C129.385 40.4602 129.204 40.5043 129.011 40.5043C128.646 40.5043 128.346 40.3813 128.097 40.131C127.848 39.8808 127.726 39.5763 127.726 39.2029C127.726 38.8402 127.842 38.5401 128.079 38.2895C128.313 38.0428 128.61 37.9209 128.987 37.9209C129.268 37.9209 129.506 37.9957 129.708 38.1454C129.819 38.2278 129.917 38.334 130.001 38.4653C130.046 38.5349 130.123 38.5769 130.205 38.5769H130.63L130.688 38.5702C130.834 38.5352 130.918 38.3697 130.848 38.2257C130.676 37.8721 130.424 37.5949 130.094 37.3989ZM150.268 37.1705C150.383 37.1705 150.479 37.2508 150.504 37.3585L150.511 37.4145V37.74C150.511 37.8555 150.431 37.9522 150.324 37.9775L150.268 37.9839L149.693 37.9838L149.693 41.0107C149.693 41.1031 149.642 41.1835 149.567 41.2249L149.506 41.2482L149.451 41.2547H149.093C148.978 41.2547 148.882 41.1744 148.857 41.0666L148.85 41.0107L148.85 37.9838L148.276 37.9839C148.184 37.9839 148.104 37.9326 148.063 37.8568L148.04 37.7959L148.033 37.74V37.4145C148.033 37.299 148.113 37.2022 148.22 37.177L148.276 37.1705H150.268ZM59.0676 37.5164C58.7766 37.2825 58.3775 37.1705 57.8757 37.1705H56.8745L56.8189 37.177C56.7117 37.2022 56.6318 37.299 56.6318 37.4145V41.0107L56.6382 41.0666C56.6634 41.1744 56.7596 41.2547 56.8745 41.2547H57.2322L57.2879 41.2482L57.3485 41.2249C57.4238 41.1835 57.4749 41.1031 57.4749 41.0107L57.4748 39.6351L58.6094 41.157L58.8037 41.2547H59.2487L59.312 41.2465L59.3678 41.2239C59.4881 41.1558 59.5362 40.9889 59.4425 40.8638L58.6784 39.845L58.7633 39.8154L58.8779 39.7604C58.9892 39.6994 59.0907 39.6202 59.1815 39.5229C59.4192 39.268 59.5396 38.9529 59.5396 38.5906C59.5396 38.1374 59.3819 37.7721 59.0676 37.5164ZM63.3013 37.1705C63.4162 37.1705 63.5125 37.2508 63.5376 37.3585L63.544 37.4145V37.74C63.544 37.8555 63.4642 37.9522 63.357 37.9775L63.3013 37.9839L61.9384 37.9838V38.7933L63.2482 38.7937C63.3401 38.7937 63.4201 38.845 63.4613 38.9208L63.4845 38.9817L63.4909 39.0376V39.3632C63.4909 39.4787 63.4111 39.5755 63.3038 39.6007L63.2482 39.6072L61.9384 39.6068V40.4407L63.3013 40.4412C63.3932 40.4412 63.4732 40.4926 63.5144 40.5683L63.5376 40.6293L63.544 40.6852V41.0107C63.544 41.1262 63.4642 41.2229 63.357 41.2482L63.3013 41.2547H61.3383C61.2234 41.2547 61.1272 41.1744 61.102 41.0666L61.0956 41.0107V37.4145C61.0956 37.299 61.1754 37.2022 61.2826 37.177L61.3383 37.1705H63.3013ZM82.1146 37.3585C82.0894 37.2508 81.9932 37.1705 81.8783 37.1705H81.5203L81.4647 37.177C81.3575 37.2022 81.2776 37.299 81.2776 37.4145V41.0107L81.284 41.0666C81.3092 41.1744 81.4054 41.2547 81.5203 41.2547H81.8783L81.9339 41.2482C82.0412 41.2229 82.121 41.1262 82.121 41.0107V37.4145L82.1146 37.3585ZM101.105 37.1705C101.22 37.1705 101.316 37.2508 101.341 37.3585L101.348 37.4145V37.74C101.348 37.8555 101.268 37.9522 101.16 37.9775L101.105 37.9839L99.7419 37.9838V38.7933L101.052 38.7937C101.144 38.7937 101.224 38.845 101.265 38.9208L101.288 38.9817L101.294 39.0376V39.3632C101.294 39.4787 101.215 39.5755 101.107 39.6007L101.052 39.6072L99.7419 39.6068V40.4407L101.105 40.4412C101.197 40.4412 101.277 40.4926 101.318 40.5683L101.341 40.6293L101.348 40.6852V41.0107C101.348 41.1262 101.268 41.2229 101.16 41.2482L101.105 41.2547H99.1418C99.0269 41.2547 98.9307 41.1744 98.9055 41.0666L98.8991 41.0107V37.4145C98.8991 37.299 98.9789 37.2022 99.0862 37.177L99.1418 37.1705H101.105ZM67.7884 37.6435C67.5318 37.3249 67.1253 37.1705 66.5905 37.1705H65.4588L65.4032 37.177C65.296 37.2022 65.2161 37.299 65.2161 37.4145V41.0107L65.2225 41.0666C65.2477 41.1744 65.3439 41.2547 65.4588 41.2547H65.8165L65.8722 41.2482L65.9328 41.2249C66.0081 41.1835 66.0592 41.1031 66.0592 41.0107L66.0591 39.8109L66.5905 39.8115L66.7669 39.8052C67.1674 39.7758 67.4891 39.643 67.7218 39.4019C67.9513 39.1633 68.0661 38.8557 68.0661 38.4931C68.0661 38.1577 67.9742 37.871 67.7884 37.6435ZM158.524 37.1705C159.025 37.1705 159.424 37.2825 159.715 37.5164C160.03 37.7721 160.187 38.1374 160.187 38.5906C160.187 38.9529 160.067 39.2681 159.829 39.5229C159.738 39.6202 159.637 39.6994 159.526 39.7604L159.411 39.8154L159.326 39.845L160.09 40.8638C160.184 40.9889 160.136 41.1558 160.016 41.2239L159.96 41.2465L159.896 41.2547H159.451L159.257 41.157L158.123 39.6351L158.123 41.0107C158.123 41.1031 158.072 41.1835 157.996 41.2249L157.936 41.2482L157.88 41.2547H157.522C157.407 41.2547 157.311 41.1744 157.286 41.0666L157.28 41.0107V37.4145C157.28 37.299 157.359 37.2022 157.467 37.177L157.522 37.1705H158.524ZM122.387 37.5164C122.096 37.2825 121.697 37.1705 121.196 37.1705H120.194L120.139 37.177C120.031 37.2022 119.952 37.299 119.952 37.4145V41.0107L119.958 41.0666C119.983 41.1744 120.079 41.2547 120.194 41.2547H120.552L120.608 41.2482L120.668 41.2249C120.744 41.1835 120.795 41.1031 120.795 41.0107L120.794 39.6341L121.929 41.157L122.124 41.2547H122.568L122.632 41.2465L122.688 41.2239C122.808 41.1558 122.856 40.9889 122.762 40.8638L121.998 39.845L122.083 39.8154L122.198 39.7604C122.309 39.6994 122.41 39.6202 122.501 39.5229C122.739 39.2681 122.859 38.953 122.859 38.5906C122.859 38.1373 122.702 37.7721 122.387 37.5164ZM118.274 37.1705C118.389 37.1705 118.485 37.2508 118.51 37.3585L118.517 37.4145V37.74C118.517 37.8555 118.437 37.9522 118.329 37.9775L118.274 37.9839L117.698 37.9838L117.699 41.0107C117.699 41.1031 117.648 41.1835 117.573 41.2249L117.512 41.2482L117.457 41.2547H117.099C116.984 41.2547 116.888 41.1744 116.863 41.0666L116.856 41.0107V37.9838L116.282 37.9839C116.19 37.9839 116.11 37.9326 116.069 37.8568L116.046 37.7959L116.039 37.74V37.4145C116.039 37.299 116.119 37.2022 116.226 37.177L116.282 37.1705H118.274ZM193.833 37.3585C193.808 37.2508 193.711 37.1705 193.597 37.1705H193.239L193.183 37.177C193.076 37.2022 192.996 37.299 192.996 37.4145V41.0107L193.003 41.0666C193.028 41.1744 193.124 41.2547 193.239 41.2547H195.076L195.132 41.2482C195.239 41.2229 195.319 41.1262 195.319 41.0107V40.6852L195.313 40.6293L195.289 40.5683C195.248 40.4926 195.168 40.4412 195.076 40.4412L193.839 40.4407L193.839 37.4145L193.833 37.3585ZM103.62 37.1705C103.735 37.1705 103.831 37.2508 103.857 37.3585L103.863 37.4145L103.863 40.4407L105.1 40.4412C105.192 40.4412 105.272 40.4926 105.313 40.5683L105.336 40.6293L105.343 40.6852V41.0107C105.343 41.1262 105.263 41.2229 105.156 41.2482L105.1 41.2547H103.262C103.148 41.2547 103.051 41.1744 103.026 41.0666L103.02 41.0107V37.4145C103.02 37.299 103.1 37.2022 103.207 37.177L103.262 37.1705H103.62ZM71.1474 37.2686C71.1022 37.2077 71.0305 37.1705 70.9529 37.1705H70.5566L70.4999 37.1772C70.4266 37.1949 70.3644 37.2463 70.3337 37.3179L68.7912 40.9141L68.7738 40.975C68.7524 41.1172 68.8614 41.2547 69.0141 41.2547H69.4009L69.4576 41.2479L69.5102 41.2285C69.56 41.2033 69.6008 41.161 69.6238 41.1073L70.077 40.0491H71.4214L71.8758 41.1073L71.9044 41.157C71.9496 41.2176 72.0211 41.2547 72.0986 41.2547H72.4855L72.548 41.2467C72.6862 41.2102 72.7687 41.0555 72.7086 40.9146L71.1759 37.3184L71.1474 37.2686ZM125.026 37.1705C125.141 37.1705 125.237 37.2508 125.262 37.3585L125.268 37.4145V41.0107C125.268 41.1262 125.189 41.2229 125.081 41.2482L125.026 41.2547H124.668C124.553 41.2547 124.457 41.1744 124.432 41.0666L124.425 41.0107V37.4145C124.425 37.299 124.505 37.2022 124.612 37.177L124.668 37.1705H125.026ZM84.7775 37.2324C84.7335 37.193 84.6762 37.1705 84.616 37.1705H84.1324L84.0768 37.177C83.9696 37.2022 83.8897 37.299 83.8897 37.4145V41.0107L83.8961 41.0666C83.9213 41.1744 84.0175 41.2547 84.1324 41.2547H84.4901L84.5458 41.2482L84.6064 41.2249C84.6817 41.1835 84.7328 41.1031 84.7328 41.0107L84.7326 38.64L86.4367 41.1483L86.4758 41.193C86.5198 41.2323 86.577 41.2547 86.6371 41.2547H86.9948L87.0505 41.2482C87.1577 41.2229 87.2375 41.1262 87.2375 41.0107V37.4145L87.2311 37.3585C87.2059 37.2508 87.1097 37.1705 86.9948 37.1705H86.6371L86.5815 37.177L86.5208 37.2003C86.4455 37.2417 86.3944 37.3221 86.3944 37.4145L86.3937 39.6058L84.8166 37.2772L84.7775 37.2324ZM78.0483 37.1705C78.5501 37.1705 78.9493 37.2825 79.2403 37.5164C79.5545 37.7721 79.7121 38.1373 79.7121 38.5906C79.7121 38.953 79.5918 39.2681 79.3541 39.5229C79.2633 39.6202 79.1618 39.6994 79.0504 39.7604L78.9358 39.8154L78.8507 39.845L79.6151 40.8638C79.7088 40.9889 79.6606 41.1558 79.5403 41.2239L79.4846 41.2465L79.4212 41.2547H78.9762L78.782 41.157L77.6471 39.6341L77.6475 41.0107C77.6475 41.1031 77.5964 41.1835 77.5211 41.2249L77.4604 41.2482L77.4048 41.2547H77.0471C76.9322 41.2547 76.836 41.1744 76.8108 41.0666L76.8044 41.0107V37.4145C76.8044 37.299 76.8842 37.2022 76.9915 37.177L77.0471 37.1705H78.0483ZM109.224 37.3585C109.199 37.2508 109.103 37.1705 108.988 37.1705H107.025L106.969 37.177C106.862 37.2022 106.782 37.299 106.782 37.4145V41.0107L106.789 41.0666C106.814 41.1744 106.91 41.2547 107.025 41.2547H108.988L109.044 41.2482C109.151 41.2229 109.231 41.1262 109.231 41.0107V40.6852L109.224 40.6293L109.201 40.5683C109.16 40.4926 109.08 40.4412 108.988 40.4412L107.625 40.4407V39.6068L108.935 39.6072L108.991 39.6007C109.098 39.5755 109.178 39.4787 109.178 39.3632V39.0376L109.171 38.9817L109.148 38.9208C109.107 38.845 109.027 38.7937 108.935 38.7937L107.625 38.7933V37.9838L108.988 37.9839L109.044 37.9775C109.151 37.9522 109.231 37.8555 109.231 37.74V37.4145L109.224 37.3585ZM190.985 37.1705C191.1 37.1705 191.196 37.2508 191.221 37.3585L191.227 37.4145V41.0107C191.227 41.1262 191.148 41.2229 191.04 41.2482L190.985 41.2547H190.627C190.512 41.2547 190.416 41.1744 190.39 41.0666L190.384 41.0107V37.4145C190.384 37.299 190.464 37.2022 190.571 37.177L190.627 37.1705H190.985ZM75.0293 37.3585C75.0041 37.2508 74.9079 37.1705 74.793 37.1705H74.435L74.3793 37.177C74.2721 37.2022 74.1923 37.299 74.1923 37.4145V41.0107L74.1987 41.0666C74.2239 41.1744 74.3201 41.2547 74.435 41.2547H74.793L74.8486 41.2482C74.9558 41.2229 75.0357 41.1262 75.0357 41.0107V37.4145L75.0293 37.3585ZM137.448 37.1705C137.526 37.1705 137.597 37.2076 137.643 37.2681L137.671 37.3178L138.764 39.8597L139.856 37.3178C139.879 37.2641 139.92 37.2219 139.969 37.1966L140.022 37.1772L140.079 37.1705H140.63C140.745 37.1705 140.841 37.2508 140.866 37.3585L140.873 37.4145V41.0107C140.873 41.1262 140.793 41.2229 140.686 41.2482L140.63 41.2547H140.272C140.157 41.2547 140.061 41.1744 140.036 41.0666L140.029 41.0107L140.028 39.0091L139.136 41.1066C139.114 41.1605 139.073 41.203 139.023 41.2284L138.97 41.2479L138.913 41.2547H138.614C138.536 41.2547 138.464 41.2174 138.419 41.1565L138.391 41.1066L137.497 39.0062L137.497 41.0107C137.497 41.1031 137.446 41.1835 137.371 41.2249L137.31 41.2482L137.255 41.2547H136.897C136.782 41.2547 136.686 41.1744 136.661 41.0666L136.654 41.0107V37.4145C136.654 37.299 136.734 37.2022 136.841 37.177L136.897 37.1705H137.448ZM185.703 38.2902C185.951 38.0429 186.257 37.9209 186.632 37.9209C187.009 37.9209 187.313 38.039 187.559 38.2774C187.802 38.5139 187.922 38.814 187.922 39.1932C187.922 39.5802 187.801 39.8896 187.556 40.136C187.31 40.3826 187.007 40.5043 186.632 40.5043C186.252 40.5043 185.945 40.3852 185.698 40.1453C185.454 39.9074 185.333 39.6049 185.333 39.2223C185.333 38.8423 185.455 38.5366 185.703 38.2902ZM144.615 37.9209C144.24 37.9209 143.934 38.0429 143.686 38.2902C143.438 38.5366 143.315 38.8423 143.315 39.2223C143.315 39.6049 143.436 39.9074 143.681 40.1453C143.928 40.3852 144.235 40.5043 144.615 40.5043C144.99 40.5043 145.293 40.3826 145.538 40.136C145.783 39.8896 145.905 39.5802 145.905 39.1932C145.905 38.8139 145.785 38.5139 145.541 38.2774C145.296 38.039 144.992 37.9209 144.615 37.9209ZM171.025 39.4593L171.637 40.0608L171.573 40.1768C171.511 40.2784 171.449 40.3521 171.388 40.3995C171.299 40.4707 171.2 40.5043 171.076 40.5043C170.934 40.5043 170.827 40.4581 170.738 40.3602C170.644 40.2566 170.599 40.137 170.599 39.9901C170.599 39.9055 170.619 39.828 170.66 39.7545C170.722 39.645 170.833 39.5501 170.999 39.4727L171.025 39.4593ZM153.537 37.9209C153.162 37.9209 152.857 38.0429 152.608 38.2902C152.36 38.5366 152.238 38.8423 152.238 39.2223C152.238 39.6049 152.359 39.9074 152.604 40.1453C152.85 40.3852 153.157 40.5043 153.537 40.5043C153.912 40.5043 154.216 40.3826 154.461 40.136C154.706 39.8896 154.827 39.5802 154.827 39.1932C154.827 38.8139 154.707 38.5139 154.464 38.2774C154.219 38.039 153.914 37.9209 153.537 37.9209ZM70.4238 39.2357L70.7531 38.4584L71.0766 39.2357H70.4238ZM158.524 37.9839L158.123 37.9838V39.1664L158.175 39.1467L158.238 39.1386H158.524C158.817 39.1386 159.027 39.0849 159.157 38.9879C159.283 38.8935 159.344 38.758 159.344 38.5566C159.344 38.3897 159.298 38.2684 159.204 38.1765C159.097 38.0706 158.917 38.0048 158.659 37.9881L158.524 37.9839ZM57.4748 37.9838L57.8757 37.9839L58.0113 37.9881C58.2695 38.0048 58.4491 38.0706 58.5565 38.1765C58.6499 38.2684 58.6965 38.3897 58.6965 38.5566C58.6965 38.758 58.6348 38.8935 58.5088 38.9879C58.3792 39.0849 58.1692 39.1386 57.8757 39.1386H57.5902L57.5269 39.1467L57.4748 39.1664V37.9838ZM78.0485 37.9839L77.6472 37.9838V39.1664L77.6996 39.1467L77.7629 39.1386H78.0485C78.342 39.1386 78.5519 39.0849 78.6815 38.9879C78.8075 38.8935 78.8692 38.758 78.8692 38.5566C78.8692 38.3896 78.8227 38.2684 78.7293 38.1766C78.6219 38.0706 78.4422 38.0048 78.1841 37.9881L78.0485 37.9839ZM120.794 37.9838L121.195 37.9839L121.331 37.9881C121.589 38.0048 121.769 38.0706 121.876 38.1766C121.97 38.2684 122.016 38.3896 122.016 38.5566C122.016 38.758 121.954 38.8935 121.828 38.9879C121.699 39.0849 121.489 39.1386 121.195 39.1386H120.91L120.847 39.1467L120.794 39.1664V37.9838ZM66.5953 37.9839L66.0592 37.9838V38.9974L66.5953 38.9977C66.8313 38.9977 66.9927 38.9417 67.0957 38.8362C67.1807 38.7506 67.2228 38.6411 67.2228 38.4931C67.2228 38.3409 67.1812 38.2291 67.0987 38.144C67.0145 38.0575 66.8873 38.004 66.7087 37.9886L66.5953 37.9839ZM171.081 37.9861C171.135 37.9423 171.198 37.9209 171.279 37.9209C171.371 37.9209 171.43 37.9436 171.473 37.9875C171.518 38.035 171.539 38.0893 171.539 38.163C171.539 38.2143 171.521 38.2607 171.476 38.311L171.427 38.3594C171.39 38.3913 171.345 38.4222 171.291 38.4521L171.233 38.4809L171.149 38.3964C171.11 38.3524 171.08 38.3101 171.06 38.2698C171.035 38.2223 171.024 38.1767 171.024 38.1289C171.024 38.0578 171.042 38.0175 171.081 37.9861Z" fill="#808285"/>
</svg>
