<svg width="40" height="39" fill="none" xmlns="http://www.w3.org/2000/svg"><path d="M16.703 26.906c0-.144.056-.288.17-.398l7.186-7.008-7.187-7.007a.56.56 0 01-.17-.398.55.55 0 01.17-.399.587.587 0 01.82 0l7.594 7.406a.562.562 0 01.17.398.55.55 0 01-.17.399l-7.595 7.406a.585.585 0 01-.63.122.578.578 0 01-.26-.208.556.556 0 01-.098-.313v0z" fill="#fff" stroke="#fff"/><path d="M1.5 36.974V2.026a.551.551 0 01.17-.4.58.58 0 01.41-.164h35.84a.591.591 0 01.41.165.563.563 0 01.17.399v34.948a.552.552 0 01-.17.4.579.579 0 01-.41.164H2.08a.59.59 0 01-.41-.164.563.563 0 01-.17-.4zM2.659 2.59v33.822H37.34V2.589H2.66z" fill="#fff" stroke="#fff"/></svg>