<svg width="16" height="9" viewBox="0 0 16 9" fill="none" xmlns="http://www.w3.org/2000/svg">
<path d="M0.625044 0.246797C0.769349 0.246797 0.91343 0.303456 1.02369 0.416542L8.03129 7.60291L15.0378 0.416543C15.09 0.362738 15.1521 0.320044 15.2205 0.290914C15.2889 0.261784 15.3622 0.24679 15.4363 0.24679C15.5103 0.24679 15.5837 0.261785 15.6521 0.290915C15.7204 0.320044 15.7826 0.362738 15.8348 0.416543C15.9406 0.525238 16 0.672534 16 0.826103C16 0.979672 15.9406 1.12697 15.8348 1.23566L8.42971 8.83043C8.37744 8.88423 8.31533 8.92693 8.24694 8.95606C8.17855 8.98519 8.10523 9.00018 8.03117 9.00018C7.95712 9.00018 7.8838 8.98519 7.81541 8.95606C7.74702 8.92693 7.68491 8.88423 7.63264 8.83043L0.226398 1.23566C0.147693 1.1546 0.0941303 1.05147 0.0724494 0.939253C0.0507686 0.827037 0.0619409 0.710751 0.10456 0.605033C0.147178 0.499316 0.219336 0.408892 0.311953 0.345147C0.40457 0.281401 0.513507 0.247181 0.625044 0.246797Z" fill="black"/>
</svg>
