<svg width="34" height="27" viewBox="0 0 34 27" fill="none" xmlns="http://www.w3.org/2000/svg">
<g clip-path="url(#clip0)">
<path d="M13.294 0.0167482L14.569 2.22754C14.705 2.46202 14.858 2.71325 15.028 2.98122C14.365 3.36644 13.719 3.7684 13.073 4.13687C10.914 5.3595 8.959 6.85011 7.395 8.79293C5.882 10.6688 5.185 12.8293 4.964 15.2411C5.712 15.2411 6.426 15.1741 7.14 15.2578C8.296 15.3751 9.503 15.4421 10.591 15.8105C12.818 16.5475 13.906 18.2056 14.11 20.4833C14.212 21.7227 14.025 22.8951 13.396 23.9838C12.07 26.2616 9.911 27.2832 7.055 26.9148C3.349 26.4793 1.36 24.6537 0.476 20.8351C0.272 19.9474 0.153 19.043 0 18.1553V15.5761C0.034 15.4756 0.085 15.3751 0.102 15.2578C0.272 13.583 0.782 12.0254 1.598 10.5515C3.485 7.13484 6.188 4.47183 9.469 2.36153C10.693 1.57435 11.934 0.787177 13.175 0C13.209 0.0167484 13.243 0.0167482 13.294 0.0167482Z" fill="#F7931D"/>
<path d="M32.198 0.0166016C32.793 0.988011 33.371 1.95942 34 2.99782C33.711 3.16531 33.422 3.34954 33.133 3.50028C30.855 4.80666 28.662 6.19678 26.877 8.17309C25.058 10.1829 24.174 12.5277 23.919 15.2577C24.157 15.2577 24.395 15.2409 24.633 15.2577C26.044 15.3582 27.489 15.2912 28.849 15.6094C32.062 16.3463 33.286 18.7749 33.065 21.7393C32.844 24.5698 30.464 26.8476 27.642 26.9816C25.568 27.0821 23.579 26.7974 21.947 25.3905C20.468 24.1176 19.805 22.3925 19.38 20.5669C18.156 15.1739 19.737 10.5681 23.443 6.56524C25.313 4.55543 27.489 2.91408 29.835 1.49046C30.6 1.02151 31.331 0.519055 32.096 0.0166016H32.198Z" fill="#F7931D"/>
</g>
<defs>
<clipPath id="clip0">
<rect width="34" height="27" fill="white"/>
</clipPath>
</defs>
</svg>
