<svg width="19" height="19" viewBox="0 0 19 19" fill="none" xmlns="http://www.w3.org/2000/svg">
<path d="M11.8668 10.2957L14.4201 7.74237C15.3006 6.86182 15.3006 5.43416 14.4201 4.55361C13.5395 3.67306 12.1119 3.67306 11.2313 4.55361L8.67801 7.1069L7.68244 6.11133C7.60434 6.03322 7.60434 5.90659 7.68244 5.82848L10.1722 3.33878C11.6777 1.83319 14.1188 1.83319 15.6244 3.33878C17.1299 4.84436 17.1299 7.2854 15.6244 8.79099L13.1347 11.2807C13.0565 11.3588 12.9299 11.3588 12.8518 11.2807L11.8668 10.2957ZM7.12238 8.66253L4.59127 11.1936C3.71072 12.0742 3.71072 13.5018 4.59127 14.3824C5.47182 15.2629 6.89948 15.2629 7.78003 14.3824L10.3111 11.8513L11.298 12.8381C11.3761 12.9162 11.3761 13.0429 11.298 13.121L8.75794 15.661C7.25136 17.1676 4.80871 17.1676 3.30212 15.661C1.79554 14.1544 1.79554 11.7118 3.30212 10.2052L5.84216 7.66516C5.92027 7.58706 6.0469 7.58706 6.12501 7.66516L7.12238 8.66253ZM6.91946 10.9123L10.8793 6.95251C10.9574 6.8744 11.084 6.8744 11.1621 6.95251L12.046 7.83639C12.1241 7.9145 12.1241 8.04113 12.046 8.11923L8.08619 12.079C8.00808 12.1571 7.88145 12.1571 7.80334 12.079L6.91946 11.1951C6.84135 11.117 6.84135 10.9904 6.91946 10.9123Z" fill="black"/>
</svg>
