<svg width="14" height="16" viewBox="0 0 14 16" fill="none" xmlns="http://www.w3.org/2000/svg">
<path d="M9.25339 0.563743C9.25339 0.708048 9.19673 0.852129 9.08364 0.962387L1.89727 7.96999L9.08364 14.9765C9.13744 15.0287 9.18014 15.0908 9.20927 15.1592C9.2384 15.2276 9.25339 15.3009 9.25339 15.375C9.25339 15.449 9.2384 15.5224 9.20927 15.5908C9.18014 15.6591 9.13744 15.7213 9.08364 15.7735C8.97494 15.8793 8.82765 15.9387 8.67408 15.9387C8.52051 15.9387 8.37321 15.8793 8.26452 15.7735L0.669752 8.3684C0.615947 8.31614 0.573255 8.25403 0.544124 8.18564C0.514994 8.11725 0.5 8.04392 0.5 7.96987C0.5 7.89582 0.514994 7.8225 0.544125 7.75411C0.573255 7.68572 0.615947 7.62361 0.669753 7.57134L8.26452 0.165097C8.34558 0.0863926 8.44871 0.032829 8.56093 0.0111484C8.67315 -0.0105321 8.78943 0.000640298 8.89515 0.0432587C9.00087 0.0858771 9.09129 0.158036 9.15504 0.250652C9.21878 0.343269 9.253 0.452205 9.25339 0.563743Z" fill="black"/>
<path d="M13.2534 0.563743C13.2534 0.708048 13.1967 0.852129 13.0836 0.962388L5.89727 7.96999L13.0836 14.9765C13.1374 15.0287 13.1801 15.0908 13.2093 15.1592C13.2384 15.2276 13.2534 15.3009 13.2534 15.375C13.2534 15.449 13.2384 15.5224 13.2093 15.5908C13.1801 15.6591 13.1374 15.7213 13.0836 15.7735C12.9749 15.8793 12.8276 15.9387 12.6741 15.9387C12.5205 15.9387 12.3732 15.8793 12.2645 15.7735L4.66975 8.3684C4.61595 8.31614 4.57326 8.25403 4.54412 8.18564C4.51499 8.11725 4.5 8.04392 4.5 7.96987C4.5 7.89582 4.51499 7.8225 4.54412 7.75411C4.57326 7.68572 4.61595 7.62361 4.66975 7.57134L12.2645 0.165098C12.3456 0.086393 12.4487 0.0328294 12.5609 0.0111488C12.6731 -0.0105317 12.7894 0.000640696 12.8951 0.0432591C13.0009 0.0858775 13.0913 0.158036 13.155 0.250653C13.2188 0.34327 13.253 0.452206 13.2534 0.563743Z" fill="black"/>
</svg>
