<svg width="19" height="19" viewBox="0 0 19 19" fill="none" xmlns="http://www.w3.org/2000/svg">
<path d="M18 4.65548C17.3665 4.94134 16.694 5.12877 16.0053 5.21144C16.7309 4.7687 17.2742 4.07524 17.5353 3.25871C16.8519 3.66953 16.1046 3.95967 15.3253 4.11676C14.3449 3.05903 12.827 2.71461 11.4953 3.24769C10.1635 3.78078 9.2874 5.08345 9.28467 6.5347C9.28603 6.80526 9.31643 7.07487 9.37533 7.33876C6.57168 7.19601 3.95976 5.85318 2.19 3.64466C1.87609 4.18262 1.71161 4.79664 1.714 5.42164C1.61439 6.56034 2.09783 7.67126 2.99467 8.36452C2.3672 8.27275 1.749 8.12476 1.14733 7.92228V7.96708C1.26738 9.69877 2.53272 11.1265 4.21867 11.4326C3.96603 11.5153 3.70214 11.5571 3.43667 11.5567C3.23854 11.5573 3.04094 11.5361 2.84733 11.4935C3.31534 12.9376 4.63447 13.9228 6.134 13.9482C4.90488 14.9329 3.38271 15.4661 1.816 15.461C1.54326 15.4615 1.27075 15.445 1 15.4116C4.05447 17.3944 7.9329 17.5303 11.1152 15.7662C14.2976 14.002 16.2769 10.6188 16.2773 6.94247C16.2773 6.7897 16.266 6.63693 16.266 6.48301C16.947 5.98359 17.5342 5.36466 18 4.65548Z" fill="black"/>
</svg>
