<svg width="34" height="27" fill="none" xmlns="http://www.w3.org/2000/svg"><g clip-path="url(#clip0)" fill="#F7931D"><path d="M13.294.017l1.275 2.21c.136.235.289.486.459.754-.663.385-1.309.787-1.955 1.156C10.914 5.36 8.959 6.85 7.395 8.793c-1.513 1.876-2.21 4.036-2.431 6.448.748 0 1.462-.067 2.176.017 1.156.117 2.363.184 3.451.553 2.227.736 3.315 2.395 3.519 4.672.102 1.24-.085 2.412-.714 3.5-1.326 2.279-3.485 3.3-6.341 2.932-3.706-.436-5.695-2.261-6.579-6.08-.204-.888-.323-1.792-.476-2.68v-2.579c.034-.1.085-.2.102-.318.17-1.675.68-3.233 1.496-4.706 1.887-3.417 4.59-6.08 7.871-8.19C10.693 1.574 11.934.787 13.175 0c.034.017.068.017.119.017zM32.198.017c.595.971 1.173 1.942 1.802 2.98-.289.168-.578.353-.867.503-2.278 1.307-4.471 2.697-6.256 4.673-1.819 2.01-2.703 4.355-2.958 7.085.238 0 .476-.017.714 0 1.411.1 2.856.033 4.216.351 3.213.737 4.437 3.166 4.216 6.13-.221 2.83-2.601 5.109-5.423 5.243-2.074.1-4.063-.185-5.695-1.591-1.479-1.273-2.142-2.998-2.567-4.824-1.224-5.393.357-9.999 4.063-14.002 1.87-2.01 4.046-3.65 6.392-5.075.765-.468 1.496-.97 2.261-1.473h.102z"/></g><defs><clipPath id="clip0"><path fill="#fff" d="M0 0h34v27H0z"/></clipPath></defs></svg>