<svg width="19" height="19" fill="none" xmlns="http://www.w3.org/2000/svg"><path d="M11.867 10.296l2.553-2.554a2.255 2.255 0 00-3.189-3.188L8.678 7.107l-.996-.996a.2.2 0 010-.283l2.49-2.49a3.855 3.855 0 115.452 5.453l-2.49 2.49a.2.2 0 01-.282 0l-.985-.985zM7.122 8.663l-2.53 2.53a2.255 2.255 0 003.188 3.19l2.531-2.532.987.987a.2.2 0 010 .283l-2.54 2.54a3.858 3.858 0 11-5.456-5.456l2.54-2.54a.2.2 0 01.283 0l.997.998zm-.203 2.25l3.96-3.96a.2.2 0 01.283 0l.884.883a.2.2 0 010 .283l-3.96 3.96a.2.2 0 01-.283 0l-.884-.884a.2.2 0 010-.283z" fill="#000"/></svg>