<svg width="14" height="16" fill="none" xmlns="http://www.w3.org/2000/svg"><path d="M9.253.564a.555.555 0 01-.17.398L1.898 7.97l7.187 7.006a.56.56 0 01.17.399.55.55 0 01-.17.399.587.587 0 01-.82 0L.67 8.367A.562.562 0 01.5 7.97a.55.55 0 01.17-.399L8.265.165a.585.585 0 01.63-.122.577.577 0 01.26.208.555.555 0 01.098.313z" fill="#000"/><path d="M13.253.564a.555.555 0 01-.17.398L5.898 7.97l7.187 7.006a.562.562 0 01.17.399.551.551 0 01-.17.399.587.587 0 01-.82 0L4.67 8.367a.562.562 0 01-.17-.398.55.55 0 01.17-.399L12.265.165a.585.585 0 01.63-.122.576.576 0 01.26.208.555.555 0 01.098.313z" fill="#000"/></svg>