<svg width="19" height="19" fill="none" xmlns="http://www.w3.org/2000/svg"><path d="M18 4.655a6.828 6.828 0 01-1.995.556 3.553 3.553 0 001.53-1.952c-.683.41-1.43.7-2.21.858a3.461 3.461 0 00-3.83-.87 3.541 3.541 0 00-2.21 3.288c.001.27.031.54.09.804A9.853 9.853 0 012.19 3.645a3.5 3.5 0 00-.476 1.777 3.35 3.35 0 001.28 2.943 10.602 10.602 0 01-1.847-.443v.045c.12 1.732 1.386 3.16 3.072 3.466a2.501 2.501 0 01-.782.124c-.198 0-.396-.02-.59-.064a3.527 3.527 0 003.287 2.455A6.869 6.869 0 011 15.412a9.811 9.811 0 0010.115.354c3.183-1.764 5.162-5.147 5.162-8.824 0-.152-.011-.305-.011-.459A7.097 7.097 0 0018 4.655z" fill="#000"/></svg>